<svg width="2829" height="2833" viewBox="0 0 2829 2833" fill="none" xmlns="http://www.w3.org/2000/svg">
<path d="M1346.39 32.6423V55.375L1414.96 74.781L1346.39 94.7414V117.474L1447.86 150.002V124.867L1377.26 105.091L1444.53 85.3156V64.8008L1377.26 45.3948L1447.86 25.2496V0.114258L1346.39 32.6423Z" fill="#0A0A0A"/>
<path d="M1447.86 254.015V229.803H1433.07C1441.2 225.368 1451 214.094 1451 195.612C1451 167.15 1429.19 144.048 1397.22 144.048C1368.57 144.048 1343.25 163.084 1343.25 195.612C1343.25 209.843 1349.16 223.335 1360.99 229.803H1346.39V254.015H1447.86ZM1396.85 168.259C1412.56 168.259 1428.45 179.348 1428.45 198.939C1428.45 213.539 1420.13 222.965 1410.52 227.216C1406.09 229.249 1401.1 230.173 1396.29 229.988C1391.3 229.619 1386.5 228.51 1382.06 226.107C1372.82 221.487 1365.8 212.615 1365.8 199.124C1365.8 177.315 1384.09 168.259 1396.66 168.259H1396.85Z" fill="#0A0A0A"/>
<path d="M1383.35 344.999C1375.04 341.302 1365.98 332.801 1365.98 317.646C1365.98 300.458 1378.92 287.705 1397.22 287.705C1406.09 287.705 1414.22 290.847 1419.76 296.022C1425.49 301.936 1428.64 308.774 1428.45 317.646C1428.45 330.953 1420.87 340.748 1410.15 344.999V369.764C1434.92 363.85 1451 342.227 1451 316.722C1451 286.411 1427.16 263.309 1397.22 263.309C1368.2 263.309 1343.25 285.487 1343.25 317.646C1343.25 343.89 1360.81 364.035 1383.35 369.764V344.999Z" fill="#0A0A0A"/>
<path d="M1389.08 478.171C1406.83 480.204 1422.72 475.583 1435.47 463.2C1445.27 453.775 1451 440.468 1451 425.313C1451 394.633 1425.68 372.085 1396.85 372.085C1368.57 372.085 1343.25 394.448 1343.25 425.682C1343.25 436.217 1346.21 446.197 1352.12 454.699C1357.85 463.2 1366.35 470.408 1377.63 475.214V450.263C1369.31 445.643 1363.95 437.695 1363.95 425.867C1363.76 412.006 1372.82 397.59 1389.08 396.481V478.171ZM1407.57 396.851C1417.55 397.775 1430.48 407.57 1430.48 425.497C1430.67 443.24 1417.18 453.405 1407.57 454.329V396.851Z" fill="#0A0A0A"/>
<path d="M1346.39 488.83V513.041H1429.19V529.12H1447.86V513.041H1452.85C1467.08 513.041 1467.08 523.021 1467.08 529.12H1485.74C1485.56 511.747 1483.71 488.83 1453.59 488.83H1447.86V476.262H1429.19V488.83H1346.39Z" fill="#0A0A0A"/>
<path d="M1389.08 628.986C1406.83 631.019 1422.72 626.398 1435.47 614.015C1445.27 604.59 1451 591.283 1451 576.128C1451 545.448 1425.68 522.9 1396.85 522.9C1368.57 522.9 1343.25 545.263 1343.25 576.497C1343.25 587.032 1346.21 597.012 1352.12 605.514C1357.85 614.015 1366.35 621.223 1377.63 626.029V601.078C1369.31 596.458 1363.95 588.51 1363.95 576.682C1363.76 562.821 1372.82 548.405 1389.08 547.296V628.986ZM1407.57 547.665C1417.55 548.59 1430.48 558.385 1430.48 576.312C1430.67 594.055 1417.18 604.22 1407.57 605.144V547.665Z" fill="#0A0A0A"/>
<path d="M1679.46 56.543L1674.02 78.6152L1735.95 113.867L1664.6 116.838L1659.15 138.91L1749.89 194.775L1755.9 170.37L1692.09 134.273L1762.14 131.172L1767.05 111.253L1706.37 76.3114L1779.74 73.6474L1785.76 49.2424L1679.46 56.543Z" fill="#AF8DEC"/>
<path d="M1725 295.765L1730.79 272.257L1716.43 268.719C1725.39 266.358 1737.6 257.756 1742.02 239.811C1748.83 212.176 1733.19 184.526 1702.14 176.874C1674.33 170.019 1645.19 182.442 1637.4 214.025C1634 227.843 1636.51 242.358 1646.45 251.469L1632.27 247.975L1626.48 271.483L1725 295.765ZM1695.99 200.294C1711.24 204.053 1724.02 218.624 1719.33 237.645C1715.84 251.822 1705.51 258.983 1695.16 260.81C1690.37 261.723 1685.3 261.426 1680.68 260.097C1675.92 258.543 1671.52 256.317 1667.79 252.922C1659.92 246.225 1655.23 235.93 1658.46 222.831C1663.68 201.656 1683.61 197.242 1695.81 200.249L1695.99 200.294Z" fill="#AF8DEC"/>
<path d="M1640.59 368.669C1633.4 363.09 1626.65 352.668 1630.27 337.953C1634.39 321.264 1650 311.979 1667.76 316.357C1676.38 318.48 1683.52 323.477 1687.67 329.829C1691.81 336.942 1693.23 344.334 1690.93 352.903C1687.74 365.823 1678.04 373.52 1666.61 375.082L1660.69 399.128C1686.15 399.313 1706.94 382.165 1713.04 357.402C1720.29 327.972 1702.67 299.835 1673.6 292.67C1645.43 285.726 1615.9 301.289 1608.2 332.513C1601.92 357.994 1614.15 381.756 1634.67 392.715L1640.59 368.669Z" fill="#AF8DEC"/>
<path d="M1614.29 499.342C1631.03 505.562 1647.57 504.88 1662.91 495.909C1674.68 489.101 1683.43 477.552 1687.05 462.837C1694.39 433.049 1675.21 405.097 1647.21 398.197C1619.76 391.43 1589.82 407.083 1582.35 437.41C1579.82 447.639 1580.31 458.036 1584.01 467.706C1587.54 477.332 1594.07 486.365 1603.87 493.729L1609.84 469.503C1602.87 463.027 1599.57 454.028 1602.4 442.543C1605.54 429.04 1617.78 417.211 1633.84 420.026L1614.29 499.342ZM1651.69 424.808C1661.16 428.094 1671.38 440.701 1667.09 458.107C1663.02 475.378 1647.49 482.019 1637.94 480.617L1651.69 424.808Z" fill="#AF8DEC"/>
<path d="M1570.28 499.474L1564.49 522.982L1644.88 542.797L1641.03 558.409L1659.16 562.876L1663.01 547.264L1667.85 548.458C1681.67 551.864 1679.28 561.554 1677.82 567.476L1695.95 571.943C1699.92 555.031 1703.61 532.337 1674.36 525.128L1668.8 523.757L1671.81 511.554L1653.68 507.087L1650.68 519.289L1570.28 499.474Z" fill="#AF8DEC"/>
<path d="M1578.19 645.775C1594.94 651.995 1611.47 651.312 1626.82 642.341C1638.59 635.534 1647.33 623.984 1650.96 609.27C1658.3 579.481 1639.11 551.529 1611.12 544.629C1583.66 537.862 1553.73 553.516 1546.25 583.842C1543.73 594.071 1544.21 604.469 1547.92 614.139C1551.45 623.765 1557.98 632.798 1567.78 640.161L1573.75 615.936C1566.78 609.459 1563.48 600.46 1566.31 588.976C1569.44 575.473 1581.69 563.643 1597.74 566.459L1578.19 645.775ZM1615.6 571.241C1625.07 574.526 1635.29 587.133 1631 604.54C1626.93 621.811 1611.4 628.452 1601.85 627.049L1615.6 571.241Z" fill="#AF8DEC"/>
<path d="M1997.13 159.458L1986.56 179.587L2038.26 228.635L1968.27 214.444L1957.7 234.573L2032.43 310.528L2044.11 288.272L1990.79 237.952L2059.54 251.705L2069.08 233.54L2018.53 185.093L2090.4 200.065L2102.08 177.809L1997.13 159.458Z" fill="#AF8DEC"/>
<path d="M1984.09 402.627L1995.34 381.189L1982.25 374.318C1991.51 374.169 2005.43 368.739 2014.01 352.374C2027.24 327.172 2018.67 296.581 1990.36 281.722C1964.99 268.409 1933.72 273.498 1918.61 302.3C1911.99 314.901 1910.96 329.596 1918.43 340.821L1905.5 334.035L1894.25 355.473L1984.09 402.627ZM1978.78 302.988C1992.69 310.289 2001.61 327.494 1992.5 344.841C1985.72 357.769 1973.97 362.25 1963.49 361.548C1958.62 361.287 1953.77 359.786 1949.6 357.389C1945.35 354.743 1941.61 351.528 1938.8 347.339C1932.77 338.953 1930.67 327.835 1936.94 315.888C1947.08 296.578 1967.49 297.062 1978.61 302.902L1978.78 302.988Z" fill="#AF8DEC"/>
<path d="M1884.7 453.214C1879.05 446.076 1874.98 434.339 1882.02 420.92C1890.01 405.701 1907.39 400.421 1923.59 408.924C1931.45 413.047 1937.19 419.608 1939.7 426.767C1942.02 434.666 1941.62 442.182 1937.34 449.951C1931.15 461.734 1919.89 466.885 1908.42 465.668L1896.92 487.597C1921.59 493.869 1945.88 482.195 1957.73 459.611C1971.82 432.773 1961.44 401.237 1934.93 387.323C1909.24 373.838 1876.84 381.881 1861.9 410.356C1849.7 433.594 1855.88 459.591 1873.19 475.143L1884.7 453.214Z" fill="#AF8DEC"/>
<path d="M1827.88 573.794C1842.65 583.84 1858.87 587.135 1875.91 582.097C1888.97 578.303 1900.22 569.183 1907.27 555.764C1921.52 528.598 1909.58 496.866 1884.05 483.467C1859.02 470.326 1826.2 478.361 1811.69 506.017C1806.79 515.345 1804.77 525.557 1806.06 535.833C1807.18 546.023 1811.36 556.357 1819.11 565.851L1830.7 543.758C1825.49 535.802 1824.43 526.274 1829.93 515.801C1836.21 503.441 1850.93 494.885 1865.84 501.462L1827.88 573.794ZM1882.04 510.378C1890.44 515.834 1897.35 530.52 1889.02 546.394C1880.93 562.19 1864.26 564.921 1855.33 561.273L1882.04 510.378Z" fill="#AF8DEC"/>
<path d="M1785.12 563.392L1773.87 584.83L1847.19 623.308L1839.72 637.546L1856.24 646.221L1863.72 631.983L1868.13 634.302C1880.74 640.916 1876.1 649.753 1873.26 655.153L1889.79 663.828C1897.7 648.359 1906.72 627.208 1880.04 613.208L1874.97 610.545L1880.81 599.417L1864.28 590.742L1858.44 601.87L1785.12 563.392Z" fill="#AF8DEC"/>
<path d="M1757.79 707.334C1772.56 717.38 1788.78 720.675 1805.83 715.637C1818.88 711.843 1830.14 702.723 1837.18 689.304C1851.44 662.138 1839.5 630.406 1813.97 617.007C1788.93 603.866 1756.12 611.901 1741.6 639.557C1736.71 648.885 1734.69 659.097 1735.97 669.373C1737.09 679.563 1741.27 689.897 1749.02 699.391L1760.62 677.298C1755.4 669.342 1754.35 659.814 1759.84 649.341C1766.12 636.981 1780.84 628.425 1795.76 635.001L1757.79 707.334ZM1811.95 643.918C1820.36 649.374 1827.26 664.06 1818.93 679.934C1810.85 695.73 1794.18 698.461 1785.24 694.812L1811.95 643.918Z" fill="#AF8DEC"/>
<path d="M2280.93 335.408L2265.85 352.423L2304.31 412.418L2239.75 381.889L2224.68 398.905L2279.05 490.537L2295.72 471.723L2255.99 410.103L2319.46 439.912L2333.06 424.557L2295.58 365.42L2361.78 397.158L2378.45 378.344L2280.93 335.408Z" fill="#AF8DEC"/>
<path d="M2210.08 568.391L2226.14 550.269L2215.07 540.464C2224.1 542.537 2238.9 540.593 2251.16 526.76C2270.03 505.455 2269.03 473.701 2245.1 452.499C2223.65 433.502 2192.08 430.961 2170.51 455.309C2161.07 465.961 2156.55 479.981 2161.12 492.667L2150.19 482.985L2134.13 501.107L2210.08 568.391ZM2228.77 470.376C2240.52 480.794 2245.07 499.634 2232.08 514.298C2222.39 525.226 2209.92 526.767 2199.91 523.575C2195.24 522.156 2190.89 519.538 2187.42 516.214C2183.93 512.628 2181.06 508.611 2179.34 503.872C2175.48 494.285 2176.11 482.988 2185.06 472.889C2199.52 456.565 2219.22 461.92 2228.63 470.254L2228.77 470.376Z" fill="#AF8DEC"/>
<path d="M2101.47 593.721C2097.69 585.439 2096.55 573.071 2106.6 561.727C2118 548.861 2136.14 547.895 2149.83 560.028C2156.47 565.911 2160.48 573.655 2161.2 581.205C2161.56 589.431 2159.38 596.633 2153.36 603.151C2144.54 613.112 2132.37 615.419 2121.53 611.492L2105.1 630.029C2127.56 642.025 2153.94 636.502 2170.85 617.411C2190.95 594.724 2188.42 561.622 2166.01 541.767C2144.29 522.526 2110.91 522.581 2089.59 546.652C2072.18 566.296 2071.97 593.018 2085.04 612.259L2101.47 593.721Z" fill="#AF8DEC"/>
<path d="M2017.45 697.201C2029.38 710.488 2044.34 717.57 2062.1 716.758C2075.68 716.198 2088.79 710.037 2098.84 698.693C2119.18 675.729 2115.18 642.061 2093.6 622.942C2072.44 604.191 2038.66 604.139 2017.94 627.519C2010.96 635.404 2006.55 644.835 2005.34 655.121C2003.99 665.284 2005.58 676.316 2010.83 687.389L2027.37 668.713C2024.21 659.74 2025.47 650.237 2033.32 641.383C2042.37 630.886 2058.71 626.1 2071.62 636.055L2017.45 697.201ZM2085.2 648.588C2092.06 655.898 2095.25 671.809 2083.36 685.227C2071.73 698.631 2054.9 697.292 2047.09 691.611L2085.2 648.588Z" fill="#AF8DEC"/>
<path d="M1978.42 676.869L1962.37 694.991L2024.34 749.897L2013.68 761.932L2027.65 774.311L2038.31 762.275L2042.05 765.584C2052.7 775.021 2046.08 782.491 2042.04 787.056L2056.01 799.435C2067.39 786.308 2081.21 767.929 2058.66 747.952L2054.37 744.153L2062.7 734.746L2048.73 722.367L2040.4 731.774L1978.42 676.869Z" fill="#AF8DEC"/>
<path d="M1917.44 810.088C1929.37 823.375 1944.33 830.456 1962.09 829.644C1975.67 829.084 1988.78 822.923 1998.83 811.58C2019.18 788.615 2015.18 754.948 1993.59 735.829C1972.43 717.077 1938.65 717.026 1917.93 740.405C1910.95 748.291 1906.54 757.722 1905.33 768.007C1903.98 778.17 1905.57 789.203 1910.82 800.276L1927.37 781.6C1924.2 772.626 1925.46 763.124 1933.31 754.27C1942.36 743.772 1958.7 738.987 1971.61 748.942L1917.44 810.088ZM1985.2 761.474C1992.05 768.784 1995.24 784.695 1983.35 798.114C1971.73 811.517 1954.89 810.179 1947.08 804.498L1985.2 761.474Z" fill="#AF8DEC"/>
<path d="M2514.38 574.159L2495.68 587.073L2518.66 654.527L2463.28 609.436L2444.57 622.349L2475.44 724.332L2496.12 710.053L2472.29 640.716L2526.78 684.848L2543.67 673.194L2521.42 606.805L2578.11 653.464L2598.79 639.186L2514.38 574.159Z" fill="#AF8DEC"/>
<path d="M2389.84 783.417L2409.76 769.664L2401.36 757.496C2409.63 761.669 2424.48 763.326 2439.69 752.827C2463.11 736.658 2469.73 705.587 2451.57 679.273C2435.3 655.697 2405.25 645.673 2378.48 664.151C2366.77 672.235 2359.02 684.766 2360.42 698.176L2352.12 686.16L2332.2 699.913L2389.84 783.417ZM2431.44 692.722C2440.36 705.651 2440.26 725.031 2424.14 736.16C2412.12 744.454 2399.64 742.964 2390.68 737.469C2386.49 734.974 2382.9 731.392 2380.32 727.332C2377.79 723.016 2375.97 718.431 2375.43 713.416C2373.98 703.186 2377.29 692.366 2388.4 684.702C2406.34 672.313 2424.19 682.227 2431.33 692.57L2431.44 692.722Z" fill="#AF8DEC"/>
<path d="M2278.32 782.019C2276.63 773.074 2278.49 760.792 2290.96 752.183C2305.1 742.419 2322.95 745.822 2333.34 760.88C2338.38 768.181 2340.42 776.658 2339.31 784.161C2337.69 792.236 2333.85 798.706 2326.45 803.593C2315.49 811.152 2303.13 810.481 2293.54 804.073L2273.16 818.142C2292.09 835.164 2319.02 836.113 2340.01 821.625C2364.96 804.407 2370.43 771.662 2353.42 747.021C2336.94 723.141 2304.51 715.206 2278.05 733.474C2256.45 748.382 2249.84 774.276 2257.94 796.087L2278.32 782.019Z" fill="#AF8DEC"/>
<path d="M2171.97 862.384C2180.38 878.141 2193.21 888.597 2210.65 892.058C2223.97 894.765 2238.17 891.921 2250.65 883.312C2275.9 865.883 2280.07 832.237 2263.69 808.509C2247.63 785.237 2214.84 777.103 2189.13 794.846C2180.46 800.83 2173.93 808.933 2170.29 818.63C2166.55 828.175 2165.45 839.266 2167.9 851.274L2188.43 837.1C2187.51 827.631 2191.01 818.705 2200.74 811.986C2212.04 803.96 2229.05 803.224 2239.2 815.979L2171.97 862.384ZM2249.4 831.399C2254.31 840.138 2253.59 856.349 2238.84 866.533C2224.34 876.764 2208.31 871.435 2202.09 864.051L2249.4 831.399Z" fill="#AF8DEC"/>
<path d="M2138.95 833.303L2119.02 847.057L2166.06 915.199L2152.83 924.333L2163.43 939.695L2176.66 930.561L2179.5 934.668C2187.58 946.38 2179.37 952.049 2174.35 955.514L2184.95 970.876C2199.14 960.855 2216.96 946.316 2199.84 921.523L2196.59 916.808L2206.93 909.668L2196.33 894.306L2185.98 901.445L2138.95 833.303Z" fill="#AF8DEC"/>
<path d="M2047.86 948.057C2056.26 963.813 2069.09 974.269 2086.53 977.73C2099.85 980.437 2114.06 977.593 2126.53 968.984C2151.78 951.556 2155.95 917.909 2139.57 894.181C2123.51 870.91 2090.72 862.775 2065.02 880.518C2056.35 886.503 2049.81 894.606 2046.17 904.302C2042.43 913.847 2041.33 924.938 2043.78 936.946L2064.31 922.773C2063.39 913.304 2066.89 904.378 2076.62 897.659C2087.92 889.632 2104.93 888.896 2115.08 901.651L2047.86 948.057ZM2125.28 917.072C2130.19 925.81 2129.48 942.022 2114.72 952.206C2100.23 962.437 2084.2 957.108 2077.98 949.723L2125.28 917.072Z" fill="#AF8DEC"/>
<path d="M2683.91 861.853L2662.66 869.914L2668.83 940.907L2625.85 883.873L2604.6 891.935L2610.16 998.341L2633.66 989.428L2627.12 916.403L2669.46 972.292L2688.65 965.018L2682.94 895.234L2726.81 954.103L2750.31 945.19L2683.91 861.853Z" fill="#AF8DEC"/>
<path d="M2512.91 1035.22L2535.55 1026.64L2530.3 1012.81C2537.33 1018.84 2551.35 1024.01 2568.63 1017.45C2595.24 1007.36 2609.11 978.776 2597.77 948.88C2587.61 922.095 2560.84 905.17 2530.42 916.705C2517.11 921.751 2506.6 932.065 2504.74 945.419L2499.57 931.767L2476.93 940.352L2512.91 1035.22ZM2575 957.12C2580.57 971.808 2575.84 990.602 2557.52 997.549C2543.87 1002.73 2532.11 998.293 2524.73 990.814C2521.25 987.388 2518.62 983.049 2517.09 978.491C2515.66 973.694 2515 968.808 2515.67 963.808C2516.71 953.529 2522.52 943.817 2535.13 939.033C2555.52 931.299 2570.48 945.196 2574.94 956.947L2575 957.12Z" fill="#AF8DEC"/>
<path d="M2404.96 1007.18C2405.47 998.09 2410.21 986.608 2424.38 981.234C2440.45 975.139 2456.96 982.714 2463.45 999.822C2466.6 1008.12 2466.54 1016.83 2463.67 1023.85C2460.17 1031.31 2454.89 1036.67 2446.53 1039.64C2434.09 1044.36 2422.24 1040.75 2414.47 1032.23L2391.31 1041.02C2405.62 1062.08 2431.54 1069.44 2455.39 1060.4C2483.73 1049.65 2496.88 1019.17 2486.26 991.171C2475.97 964.04 2446.39 948.575 2416.32 959.979C2391.78 969.285 2379.17 992.845 2381.81 1015.96L2404.96 1007.18Z" fill="#AF8DEC"/>
<path d="M2282.48 1059.76C2286.87 1077.07 2296.82 1090.29 2312.92 1097.82C2325.21 1103.64 2339.69 1104.28 2353.86 1098.91C2382.54 1088.03 2394.65 1056.36 2384.42 1029.4C2374.39 1002.96 2344.51 987.213 2315.3 998.289C2305.45 1002.02 2297.17 1008.33 2291.32 1016.87C2285.4 1025.24 2281.67 1035.75 2281.18 1048L2304.51 1039.15C2305.88 1029.73 2311.41 1021.9 2322.47 1017.71C2335.36 1012.62 2352.05 1015.98 2358.86 1030.79L2282.48 1059.76ZM2365.07 1048.2C2367.74 1057.86 2363.17 1073.43 2346.41 1079.79C2329.88 1086.25 2315.6 1077.24 2311.32 1068.58L2365.07 1048.2Z" fill="#AF8DEC"/>
<path d="M2257.37 1023.62L2234.73 1032.2L2264.09 1109.62L2249.06 1115.32L2255.68 1132.78L2270.71 1127.08L2272.48 1131.74C2277.53 1145.05 2268.2 1148.59 2262.5 1150.75L2269.12 1168.2C2285.29 1161.87 2306.07 1152.02 2295.38 1123.85L2293.35 1118.49L2305.1 1114.03L2298.48 1096.58L2286.73 1101.04L2257.37 1023.62Z" fill="#AF8DEC"/>
<path d="M2141.46 1113.24C2145.85 1130.55 2155.81 1143.77 2171.91 1151.3C2184.2 1157.12 2198.67 1157.76 2212.84 1152.38C2241.53 1141.51 2253.63 1109.84 2243.41 1082.88C2233.38 1056.44 2203.49 1040.69 2174.29 1051.77C2164.44 1055.5 2156.15 1061.81 2150.3 1070.35C2144.38 1078.72 2140.66 1089.23 2140.16 1101.48L2163.49 1092.63C2164.86 1083.21 2170.39 1075.38 2181.45 1071.19C2194.35 1066.1 2211.04 1069.46 2217.84 1084.27L2141.46 1113.24ZM2224.05 1101.68C2226.73 1111.34 2222.16 1126.91 2205.39 1133.27C2188.87 1139.73 2174.58 1130.72 2170.31 1122.06L2224.05 1101.68Z" fill="#AF8DEC"/>
<path d="M2779.67 1181.74L2757.11 1184.48L2746.11 1254.89L2718.03 1189.23L2695.46 1191.97L2675.4 1296.61L2700.35 1293.58L2711.47 1221.12L2739.21 1285.52L2759.58 1283.04L2770.73 1213.92L2799.24 1281.58L2824.19 1278.55L2779.67 1181.74Z" fill="#AF8DEC"/>
<path d="M2572.14 1309.15L2596.18 1306.23L2594.4 1291.56C2599.78 1299.09 2612.15 1307.46 2630.5 1305.23C2658.75 1301.8 2679.06 1277.37 2675.21 1245.63C2671.75 1217.19 2649.8 1194.35 2617.51 1198.27C2603.39 1199.98 2590.7 1207.48 2585.71 1220L2583.95 1205.51L2559.91 1208.43L2572.14 1309.15ZM2651.13 1248.18C2653.02 1263.77 2643.93 1280.89 2624.48 1283.25C2609.99 1285.01 2599.63 1277.89 2594.25 1268.86C2591.7 1264.7 2590.18 1259.86 2589.78 1255.07C2589.55 1250.07 2590.07 1245.17 2591.92 1240.47C2595.39 1230.74 2603.35 1222.7 2616.74 1221.07C2638.39 1218.45 2649.59 1235.52 2651.1 1247.99L2651.13 1248.18Z" fill="#AF8DEC"/>
<path d="M2474.05 1256.09C2476.72 1247.39 2484.06 1237.37 2499.11 1235.54C2516.17 1233.47 2530.39 1244.78 2532.6 1262.94C2533.67 1271.75 2531.53 1280.2 2527.06 1286.33C2521.88 1292.73 2515.47 1296.67 2506.64 1297.56C2493.43 1299.16 2482.79 1292.82 2477.28 1282.69L2452.69 1285.68C2461.55 1309.55 2484.95 1322.9 2510.27 1319.83C2540.36 1316.18 2560.42 1289.72 2556.81 1260C2553.32 1231.2 2528.29 1209.1 2496.37 1212.98C2470.32 1216.14 2452.43 1236 2449.46 1259.07L2474.05 1256.09Z" fill="#AF8DEC"/>
<path d="M2342.54 1277.83C2342.66 1295.69 2349.16 1310.91 2362.99 1322.07C2373.53 1330.66 2387.43 1334.75 2402.47 1332.92C2432.93 1329.22 2452.26 1301.37 2448.79 1272.75C2445.38 1244.67 2420.13 1222.23 2389.12 1226C2378.66 1227.27 2369.11 1231.41 2361.38 1238.3C2353.64 1245.02 2347.5 1254.32 2344.09 1266.1L2368.86 1263.09C2372.45 1254.27 2379.69 1248 2391.43 1246.57C2405.17 1244.72 2420.57 1251.97 2423.63 1267.98L2342.54 1277.83ZM2425.49 1286.37C2425.78 1296.39 2417.61 1310.41 2399.82 1312.58C2382.23 1314.9 2370.51 1302.73 2368.43 1293.3L2425.49 1286.37Z" fill="#AF8DEC"/>
<path d="M2326.81 1236.73L2302.78 1239.65L2312.76 1321.84L2296.8 1323.78L2299.05 1342.31L2315.01 1340.37L2315.61 1345.33C2317.32 1359.46 2307.42 1360.66 2301.36 1361.39L2303.61 1379.92C2320.84 1377.65 2343.36 1373.05 2339.73 1343.14L2339.04 1337.46L2351.52 1335.94L2349.27 1317.41L2336.79 1318.93L2326.81 1236.73Z" fill="#AF8DEC"/>
<path d="M2192.82 1296.01C2192.94 1313.86 2199.45 1329.09 2213.28 1340.25C2223.81 1348.84 2237.71 1352.92 2252.76 1351.1C2283.22 1347.4 2302.55 1319.55 2299.07 1290.92C2295.66 1262.85 2270.41 1240.41 2239.4 1244.18C2228.95 1245.45 2219.4 1249.59 2211.67 1256.48C2203.92 1263.19 2197.79 1272.5 2194.38 1284.27L2219.15 1281.27C2222.73 1272.45 2229.97 1266.18 2241.72 1264.75C2255.45 1262.9 2270.86 1270.15 2273.92 1286.16L2192.82 1296.01ZM2275.78 1304.55C2276.06 1314.57 2267.9 1328.59 2250.1 1330.75C2232.51 1333.08 2220.79 1320.91 2218.72 1311.48L2275.78 1304.55Z" fill="#AF8DEC"/>
<path d="M2796.09 1515.26L2773.53 1512.52L2746 1578.25L2734.45 1507.78L2711.88 1505.04L2667.36 1601.84L2692.31 1604.87L2720.45 1537.17L2731.97 1606.34L2752.34 1608.81L2779.71 1544.37L2791.2 1616.88L2816.15 1619.91L2796.09 1515.26Z" fill="#AF8DEC"/>
<path d="M2564.1 1589.31L2588.14 1592.22L2589.92 1577.55C2593.34 1586.15 2603.35 1597.24 2621.7 1599.47C2649.96 1602.9 2675.52 1584.03 2679.37 1552.29C2682.83 1523.85 2666.98 1496.42 2634.69 1492.5C2620.56 1490.79 2606.46 1495.03 2598.61 1505.99L2600.37 1491.5L2576.33 1488.58L2564.1 1589.31ZM2655.38 1549.01C2653.49 1564.6 2640.57 1579.04 2621.12 1576.68C2606.62 1574.92 2598.27 1565.53 2595.21 1555.48C2593.72 1550.83 2593.41 1545.76 2594.17 1541.01C2595.14 1536.11 2596.82 1531.47 2599.74 1527.35C2605.44 1518.74 2615.09 1512.84 2628.49 1514.46C2650.14 1517.09 2656.92 1536.35 2655.41 1548.82L2655.38 1549.01Z" fill="#AF8DEC"/>
<path d="M2481.56 1514.31C2486.23 1506.5 2495.76 1498.53 2510.81 1500.36C2527.87 1502.43 2538.97 1516.81 2536.76 1534.97C2535.69 1543.78 2531.59 1551.48 2525.79 1556.36C2519.23 1561.33 2512.06 1563.63 2503.28 1562.37C2490.07 1560.77 2481.26 1552.07 2478.33 1540.91L2453.74 1537.93C2456.63 1563.22 2476.16 1581.79 2501.48 1584.87C2531.56 1588.52 2557.37 1567.64 2560.98 1537.92C2564.48 1509.11 2545.47 1481.67 2513.55 1477.79C2487.49 1474.63 2465.38 1489.63 2456.97 1511.32L2481.56 1514.31Z" fill="#AF8DEC"/>
<path d="M2348.67 1503.94C2344.51 1521.31 2347.18 1537.65 2357.94 1551.8C2366.11 1562.66 2378.63 1569.95 2393.68 1571.78C2424.13 1575.48 2449.57 1553.06 2453.04 1524.44C2456.45 1496.37 2437.3 1468.53 2406.3 1464.77C2395.84 1463.5 2385.57 1465.23 2376.42 1470.08C2367.29 1474.74 2359.11 1482.31 2352.98 1492.92L2377.75 1495.93C2383.34 1488.23 2391.88 1483.87 2403.62 1485.3C2417.4 1486.78 2430.62 1497.51 2429.76 1513.79L2348.67 1503.94ZM2427.17 1532.09C2425.05 1541.89 2413.76 1553.55 2395.97 1551.39C2378.33 1549.44 2369.87 1534.82 2370.11 1525.16L2427.17 1532.09Z" fill="#AF8DEC"/>
<path d="M2343.23 1460.28L2319.2 1457.36L2309.22 1539.55L2293.25 1537.62L2291 1556.15L2306.97 1558.08L2306.36 1563.04C2304.65 1577.17 2294.74 1575.96 2288.69 1575.23L2286.44 1593.76C2303.71 1595.67 2326.68 1596.6 2330.31 1566.69L2331 1561L2343.48 1562.52L2345.73 1543.99L2333.25 1542.47L2343.23 1460.28Z" fill="#AF8DEC"/>
<path d="M2198.95 1485.77C2194.79 1503.13 2197.46 1519.47 2208.22 1533.62C2216.4 1544.48 2228.92 1551.77 2243.96 1553.6C2274.42 1557.3 2299.85 1534.88 2303.33 1506.26C2306.74 1478.19 2287.59 1450.36 2256.58 1446.59C2246.12 1445.32 2235.86 1447.05 2226.71 1451.9C2217.58 1456.56 2209.4 1464.13 2203.27 1474.75L2228.04 1477.75C2233.63 1470.05 2242.16 1465.69 2253.9 1467.12C2267.69 1468.6 2280.9 1479.33 2280.05 1495.61L2198.95 1485.77ZM2277.45 1513.91C2275.33 1523.71 2264.05 1535.37 2246.25 1533.21C2228.61 1531.26 2220.15 1516.64 2220.39 1506.99L2277.45 1513.91Z" fill="#AF8DEC"/>
<path d="M2732.22 1843.02L2710.96 1834.96L2668.5 1892.19L2674.15 1821L2652.9 1812.94L2586.5 1896.27L2610.01 1905.19L2653.53 1846.19L2648.17 1916.1L2667.35 1923.38L2709.35 1867.36L2703.15 1940.51L2726.65 1949.43L2732.22 1843.02Z" fill="#AF8DEC"/>
<path d="M2489.25 1859.39L2511.89 1867.98L2517.13 1854.15C2518.39 1863.33 2525.46 1876.49 2542.74 1883.04C2569.36 1893.13 2598.69 1880.93 2610.03 1851.04C2620.19 1824.25 2611.37 1793.83 2580.95 1782.29C2567.65 1777.25 2552.93 1777.99 2542.69 1786.76L2547.87 1773.11L2525.23 1764.52L2489.25 1859.39ZM2587.52 1842.11C2581.95 1856.79 2565.95 1867.72 2547.63 1860.78C2533.98 1855.6 2528.11 1844.48 2527.55 1833.99C2527.22 1829.12 2528.12 1824.13 2530 1819.7C2532.12 1815.16 2534.86 1811.06 2538.68 1807.77C2546.27 1800.77 2557.06 1797.34 2569.67 1802.13C2590.06 1809.86 2592.04 1830.18 2587.59 1841.93L2587.52 1842.11Z" fill="#AF8DEC"/>
<path d="M2427.05 1766.82C2433.46 1760.35 2444.62 1754.9 2458.79 1760.27C2474.86 1766.37 2482.19 1782.99 2475.71 1800.1C2472.56 1808.39 2466.74 1814.88 2459.93 1818.23C2452.37 1821.49 2444.86 1822 2436.64 1818.68C2424.19 1813.96 2417.72 1803.41 2417.55 1791.88L2394.39 1783.09C2391.14 1808.35 2405.66 1831.05 2429.5 1840.09C2457.84 1850.84 2487.9 1836.74 2498.52 1808.75C2508.81 1781.62 2496.92 1750.42 2466.85 1739.02C2442.31 1729.71 2417.25 1738.98 2403.89 1758.04L2427.05 1766.82Z" fill="#AF8DEC"/>
<path d="M2300.5 1724.95C2292.31 1740.82 2290.99 1757.32 2298.05 1773.64C2303.39 1786.14 2313.8 1796.21 2327.97 1801.59C2356.66 1812.47 2386.72 1796.79 2396.94 1769.83C2406.97 1743.39 2395.04 1711.78 2365.83 1700.71C2355.98 1696.97 2345.6 1696.2 2335.56 1698.71C2325.57 1701.06 2315.82 1706.45 2307.33 1715.29L2330.66 1724.13C2337.93 1718 2347.26 1715.8 2358.32 1720C2371.35 1724.74 2381.61 1738.32 2376.88 1753.92L2300.5 1724.95ZM2369.98 1771.07C2365.58 1780.07 2351.83 1788.7 2335.07 1782.34C2318.42 1776.22 2313.7 1760 2316.24 1750.69L2369.98 1771.07Z" fill="#AF8DEC"/>
<path d="M2305.67 1681.25L2283.04 1672.67L2253.68 1750.09L2238.64 1744.38L2232.02 1761.84L2247.06 1767.54L2245.29 1772.21C2240.24 1785.51 2230.91 1781.97 2225.21 1779.81L2218.59 1797.26C2234.9 1803.25 2256.98 1809.65 2267.66 1781.48L2269.69 1776.12L2281.45 1780.58L2288.06 1763.13L2276.31 1758.67L2305.67 1681.25Z" fill="#AF8DEC"/>
<path d="M2159.49 1671.47C2151.29 1687.34 2149.98 1703.84 2157.03 1720.16C2162.37 1732.66 2172.78 1742.73 2186.96 1748.11C2215.64 1758.99 2245.7 1743.31 2255.93 1716.35C2265.95 1689.91 2254.02 1658.3 2224.82 1647.23C2214.97 1643.49 2204.59 1642.72 2194.54 1645.23C2184.56 1647.58 2174.81 1652.97 2166.32 1661.81L2189.64 1670.65C2196.91 1664.52 2206.25 1662.32 2217.3 1666.52C2230.33 1671.26 2240.6 1684.84 2235.87 1700.44L2159.49 1671.47ZM2228.97 1717.59C2224.57 1726.59 2210.82 1735.22 2194.06 1728.86C2177.4 1722.74 2172.68 1706.52 2175.23 1697.21L2228.97 1717.59Z" fill="#AF8DEC"/>
<path d="M2591.76 2145.97L2573.05 2133.05L2518.13 2178.46L2540.65 2110.69L2521.94 2097.78L2437.54 2162.8L2458.22 2177.08L2514.6 2130.21L2492.66 2196.81L2509.54 2208.47L2563.73 2164.12L2540.2 2233.67L2560.89 2247.95L2591.76 2145.97Z" fill="#AF8DEC"/>
<path d="M2351.93 2103.72L2371.86 2117.47L2380.26 2105.3C2379.29 2114.52 2383 2128.98 2398.21 2139.48C2421.64 2155.65 2453.04 2150.82 2471.2 2124.51C2487.48 2100.93 2486.19 2069.28 2459.42 2050.8C2447.71 2042.72 2433.25 2039.92 2421.2 2045.98L2429.5 2033.97L2409.57 2020.21L2351.93 2103.72ZM2451.49 2110.45C2442.56 2123.38 2424.41 2130.16 2408.28 2119.03C2396.27 2110.74 2393.24 2098.54 2395.2 2088.22C2396.04 2083.41 2398.12 2078.78 2401 2074.93C2404.14 2071.03 2407.78 2067.71 2412.28 2065.42C2421.33 2060.44 2432.62 2059.7 2443.72 2067.37C2461.67 2079.76 2458.73 2099.96 2451.59 2110.3L2451.49 2110.45Z" fill="#AF8DEC"/>
<path d="M2313.7 1998.95C2321.46 1994.2 2333.6 1991.58 2346.08 2000.19C2360.22 2009.95 2363.37 2027.85 2352.97 2042.9C2347.94 2050.2 2340.73 2055.11 2333.32 2056.74C2325.2 2058.09 2317.79 2056.79 2310.59 2051.6C2299.64 2044.04 2295.88 2032.24 2298.47 2021L2278.09 2006.94C2268.89 2030.68 2277.55 2056.19 2298.54 2070.68C2323.49 2087.9 2356.04 2081.4 2373.05 2056.76C2389.54 2032.88 2385.46 1999.75 2358.99 1981.48C2337.39 1966.57 2310.84 1969.58 2293.32 1984.88L2313.7 1998.95Z" fill="#AF8DEC"/>
<path d="M2200.84 1928.01C2189.09 1941.46 2183.87 1957.17 2186.81 1974.7C2189.01 1988.11 2196.7 2000.39 2209.17 2009C2234.42 2026.42 2267.36 2018.39 2283.74 1994.67C2299.8 1971.39 2295.78 1937.85 2270.08 1920.11C2261.41 1914.13 2251.52 1910.89 2241.16 1910.93C2230.91 1910.81 2220.15 1913.72 2209.79 1920.26L2230.32 1934.44C2238.85 1930.22 2248.43 1930.32 2258.17 1937.04C2269.68 1944.76 2276.4 1960.4 2268.07 1974.42L2200.84 1928.01ZM2257.27 1989.42C2250.84 1997.11 2235.43 2002.19 2220.68 1992.01C2205.97 1982.08 2205.27 1965.2 2209.97 1956.77L2257.27 1989.42Z" fill="#AF8DEC"/>
<path d="M2216.32 1886.82L2196.4 1873.07L2149.36 1941.21L2136.13 1932.08L2125.53 1947.44L2138.76 1956.57L2135.93 1960.68C2127.84 1972.39 2119.63 1966.72 2114.61 1963.26L2104 1978.62C2118.41 1988.34 2138.32 1999.84 2155.43 1975.04L2158.69 1970.33L2169.03 1977.47L2179.63 1962.11L2169.29 1954.97L2216.32 1886.82Z" fill="#AF8DEC"/>
<path d="M2076.73 1842.34C2064.97 1855.79 2059.75 1871.49 2062.69 1889.02C2064.89 1902.44 2072.58 1914.71 2085.06 1923.32C2110.31 1940.75 2143.25 1932.72 2159.62 1908.99C2175.69 1885.72 2171.67 1852.18 2145.96 1834.44C2137.29 1828.45 2127.4 1825.22 2117.04 1825.25C2106.79 1825.14 2096.03 1828.04 2085.67 1834.59L2106.2 1848.76C2114.73 1844.55 2124.31 1844.65 2134.05 1851.37C2145.56 1859.09 2152.28 1874.73 2143.96 1888.75L2076.73 1842.34ZM2133.15 1903.75C2126.72 1911.44 2111.31 1916.52 2096.56 1906.33C2081.85 1896.41 2081.15 1879.53 2085.85 1871.1L2133.15 1903.75Z" fill="#AF8DEC"/>
<path d="M2382.89 2406.5L2367.81 2389.48L2303.62 2420.42L2341.71 2360.01L2326.63 2343L2229.11 2385.93L2245.78 2404.75L2311.74 2372.73L2274.5 2432.15L2288.1 2447.5L2351.33 2417.42L2311.84 2479.31L2328.51 2498.13L2382.89 2406.5Z" fill="#AF8DEC"/>
<path d="M2160.14 2308.08L2176.2 2326.2L2187.26 2316.4C2184.12 2325.11 2184.26 2340.04 2196.52 2353.88C2215.39 2375.18 2247.04 2378.01 2270.97 2356.81C2292.41 2337.81 2298.74 2306.77 2277.17 2282.43C2267.73 2271.77 2254.36 2265.6 2241.22 2268.6L2252.14 2258.92L2236.09 2240.8L2160.14 2308.08ZM2255.19 2338.44C2243.43 2348.86 2224.18 2351.1 2211.19 2336.44C2201.51 2325.51 2201.48 2312.94 2205.86 2303.38C2207.83 2298.92 2210.95 2294.92 2214.67 2291.87C2218.65 2288.84 2222.98 2286.48 2227.9 2285.34C2237.88 2282.67 2249.02 2284.65 2257.96 2294.75C2272.43 2311.07 2264.73 2329.99 2255.33 2338.32L2255.19 2338.44Z" fill="#AF8DEC"/>
<path d="M2148.09 2197.2C2156.76 2194.46 2169.18 2194.81 2179.23 2206.16C2190.63 2219.02 2189.4 2237.15 2175.71 2249.28C2169.06 2255.16 2160.89 2258.2 2153.31 2258.01C2145.1 2257.38 2138.22 2254.35 2132.47 2247.58C2123.65 2237.62 2122.82 2225.27 2128.03 2214.98L2111.61 2196.44C2096.99 2217.29 2099.29 2244.14 2116.21 2263.23C2136.31 2285.91 2169.47 2287.4 2191.88 2267.54C2213.6 2248.3 2217.57 2215.15 2196.25 2191.08C2178.84 2171.44 2152.34 2168 2131.67 2178.67L2148.09 2197.2Z" fill="#AF8DEC"/>
<path d="M2055.49 2101.32C2040.86 2111.57 2032.03 2125.57 2030.69 2143.29C2029.61 2156.84 2034.15 2170.6 2044.2 2181.94C2064.54 2204.91 2098.45 2205 2120.03 2185.88C2141.19 2167.13 2145.32 2133.6 2124.6 2110.22C2117.62 2102.33 2108.79 2096.82 2098.72 2094.38C2088.8 2091.82 2077.65 2092.06 2066.03 2095.94L2082.57 2114.61C2091.86 2112.56 2101.14 2114.95 2108.99 2123.81C2118.32 2134.06 2121.1 2150.85 2109.66 2162.47L2055.49 2101.32ZM2095.58 2174.45C2087.5 2180.37 2071.32 2181.62 2059.43 2168.2C2047.53 2155.04 2050.89 2138.49 2057.47 2131.42L2095.58 2174.45Z" fill="#AF8DEC"/>
<path d="M2080.38 2065.03L2064.32 2046.91L2002.35 2101.82L1991.68 2089.78L1977.71 2102.16L1988.38 2114.2L1984.64 2117.5C1973.99 2126.94 1967.37 2119.47 1963.33 2114.91L1949.35 2127.28C1961.01 2140.17 1977.59 2156.09 2000.14 2136.12L2004.43 2132.32L2012.76 2141.73L2026.74 2129.35L2018.4 2119.94L2080.38 2065.03Z" fill="#AF8DEC"/>
<path d="M1955.48 1988.44C1940.85 1998.68 1932.02 2012.68 1930.69 2030.4C1929.6 2043.95 1934.14 2057.71 1944.19 2069.06C1964.53 2092.02 1998.44 2092.11 2020.02 2072.99C2041.18 2054.24 2045.31 2020.71 2024.6 1997.33C2017.61 1989.45 2008.78 1983.94 1998.71 1981.49C1988.79 1978.93 1977.64 1979.17 1966.02 1983.05L1982.56 2001.73C1991.85 1999.67 2001.14 2002.06 2008.98 2010.92C2018.31 2021.17 2021.09 2037.97 2009.65 2049.58L1955.48 1988.44ZM1995.57 2061.56C1987.49 2067.49 1971.31 2068.73 1959.42 2055.32C1947.52 2042.16 1950.88 2025.6 1957.46 2018.54L1995.57 2061.56Z" fill="#AF8DEC"/>
<path d="M2117.73 2609.47L2107.17 2589.34L2037.44 2604.02L2088.87 2554.48L2078.31 2534.35L1973.35 2552.7L1985.03 2574.96L2056.73 2559.66L2006.36 2608.43L2015.89 2626.6L2084.48 2612.52L2031.32 2663.16L2043.01 2685.42L2117.73 2609.47Z" fill="#AF8DEC"/>
<path d="M1925.01 2460.6L1936.26 2482.04L1949.36 2475.17C1944.22 2482.88 1940.78 2497.41 1949.37 2513.78C1962.6 2538.98 1992.64 2549.3 2020.96 2534.44C2046.32 2521.13 2059.89 2492.51 2044.78 2463.7C2038.16 2451.1 2026.66 2441.9 2013.18 2441.67L2026.11 2434.89L2014.85 2413.45L1925.01 2460.6ZM2010.03 2512.83C1996.12 2520.13 1976.89 2517.7 1967.79 2500.35C1961 2487.42 1963.99 2475.21 1970.52 2466.98C1973.51 2463.12 1977.49 2459.98 1981.84 2457.91C1986.43 2455.92 1991.2 2454.67 1996.24 2454.74C2006.57 2454.53 2016.91 2459.13 2023.18 2471.07C2033.32 2490.38 2021.32 2506.9 2010.2 2512.74L2010.03 2512.83Z" fill="#AF8DEC"/>
<path d="M1939.84 2350.07C1948.92 2349.47 1960.89 2352.79 1967.94 2366.21C1975.92 2381.43 1970.4 2398.74 1954.19 2407.24C1946.34 2411.36 1937.68 2412.36 1930.36 2410.35C1922.54 2407.78 1916.58 2403.18 1912.62 2395.24C1906.44 2383.46 1908.6 2371.26 1916.11 2362.52L1904.6 2340.59C1885.42 2357.34 1881.24 2383.96 1893.09 2406.54C1907.17 2433.38 1939.02 2442.75 1965.53 2428.84C1991.22 2415.36 2003.01 2384.12 1988.07 2355.65C1975.87 2332.41 1950.96 2322.73 1928.33 2328.14L1939.84 2350.07Z" fill="#AF8DEC"/>
<path d="M1872.88 2234.81C1856.23 2241.26 1844.3 2252.73 1838.76 2269.62C1834.47 2282.52 1835.58 2296.97 1842.62 2310.39C1856.88 2337.55 1889.78 2345.75 1915.31 2332.35C1940.35 2319.21 1952.37 2287.64 1937.86 2259.99C1932.96 2250.66 1925.71 2243.19 1916.52 2238.42C1907.5 2233.55 1896.62 2231.12 1884.4 2232.1L1896 2254.2C1905.51 2254.42 1913.95 2258.97 1919.44 2269.44C1926.05 2281.63 1924.73 2298.6 1910.84 2307.14L1872.88 2234.81ZM1894.31 2315.4C1885.04 2319.22 1869.03 2316.56 1860.7 2300.69C1852.29 2285.06 1859.52 2269.79 1867.6 2264.51L1894.31 2315.4Z" fill="#AF8DEC"/>
<path d="M1905.73 2205.53L1894.48 2184.09L1821.16 2222.57L1813.69 2208.33L1797.16 2217.01L1804.64 2231.25L1800.22 2233.57C1787.62 2240.18 1782.98 2231.34 1780.14 2225.94L1763.62 2234.62C1771.85 2249.91 1784.14 2269.35 1810.81 2255.35L1815.89 2252.69L1821.73 2263.81L1838.26 2255.14L1832.42 2244.01L1905.73 2205.53Z" fill="#AF8DEC"/>
<path d="M1802.79 2101.27C1786.14 2107.72 1774.21 2119.19 1768.68 2136.08C1764.38 2148.98 1765.49 2163.43 1772.54 2176.85C1786.79 2204.01 1819.69 2212.21 1845.22 2198.81C1870.26 2185.67 1882.29 2154.1 1867.77 2126.45C1862.88 2117.12 1855.62 2109.66 1846.43 2104.88C1837.41 2100.01 1826.53 2097.58 1814.31 2098.56L1825.91 2120.66C1835.42 2120.88 1843.86 2125.43 1849.36 2135.9C1855.96 2148.09 1854.64 2165.06 1840.76 2173.6L1802.79 2101.27ZM1824.22 2181.86C1814.95 2185.68 1798.95 2183.02 1790.62 2167.15C1782.21 2151.52 1789.43 2136.25 1797.51 2130.97L1824.22 2181.86Z" fill="#AF8DEC"/>
<path d="M1811.71 2743.09L1806.27 2721.02L1735.05 2718.58L1796.85 2682.79L1791.41 2660.72L1685.11 2653.42L1691.12 2677.83L1764.4 2680.13L1703.82 2715.43L1708.73 2735.35L1778.69 2738.09L1714.96 2774.55L1720.98 2798.95L1811.71 2743.09Z" fill="#AF8DEC"/>
<path d="M1660.22 2552.43L1666.01 2575.94L1680.37 2572.4C1673.53 2578.65 1666.72 2591.94 1671.14 2609.89C1677.95 2637.52 1704.66 2654.74 1735.7 2647.08C1763.52 2640.23 1783.54 2615.69 1775.76 2584.1C1772.35 2570.29 1763.38 2558.6 1750.35 2555.15L1764.53 2551.66L1758.73 2528.15L1660.22 2552.43ZM1730.27 2623.49C1715.01 2627.25 1696.93 2620.28 1692.24 2601.26C1688.74 2587.09 1694.56 2575.94 1702.88 2569.52C1706.7 2566.48 1711.32 2564.39 1716.03 2563.42C1720.97 2562.58 1725.9 2562.51 1730.78 2563.78C1740.86 2566.06 1749.8 2572.99 1753.03 2586.09C1758.25 2607.26 1742.65 2620.44 1730.45 2623.44L1730.27 2623.49Z" fill="#AF8DEC"/>
<path d="M1701.07 2448.66C1710.03 2450.25 1720.86 2456.34 1724.48 2471.06C1728.6 2487.74 1719.09 2503.22 1701.32 2507.6C1692.71 2509.72 1684.06 2508.62 1677.44 2504.92C1670.46 2500.55 1665.77 2494.66 1663.83 2486.01C1660.65 2473.09 1665.66 2461.76 1675.05 2455.07L1669.12 2431.02C1646.49 2442.69 1636.05 2467.54 1642.16 2492.3C1649.41 2521.73 1678.09 2538.45 1707.16 2531.29C1735.33 2524.34 1754.25 2496.84 1746.56 2465.62C1740.28 2440.13 1718.41 2424.78 1695.14 2424.61L1701.07 2448.66Z" fill="#AF8DEC"/>
<path d="M1663.64 2320.72C1645.92 2323 1631.6 2331.29 1622.18 2346.36C1614.92 2357.86 1612.54 2372.15 1616.17 2386.86C1623.51 2416.65 1653.49 2432.48 1681.49 2425.59C1708.94 2418.82 1728.18 2391.05 1720.7 2360.72C1718.18 2350.49 1712.92 2341.51 1705.14 2334.67C1697.55 2327.78 1687.57 2322.82 1675.47 2320.85L1681.44 2345.08C1690.62 2347.57 1697.73 2354.01 1700.56 2365.49C1704.06 2378.91 1698.71 2395.07 1683.19 2400.04L1663.64 2320.72ZM1665.15 2404.1C1655.24 2405.6 1640.34 2399.18 1636.05 2381.77C1631.62 2364.59 1642.29 2351.49 1651.4 2348.3L1665.15 2404.1Z" fill="#AF8DEC"/>
<path d="M1702.54 2300.16L1696.74 2276.65L1616.35 2296.47L1612.5 2280.85L1594.38 2285.32L1598.23 2300.93L1593.38 2302.13C1579.56 2305.53 1577.18 2295.84 1575.72 2289.92L1557.59 2294.39C1561.93 2311.21 1569.21 2333.02 1598.46 2325.81L1604.02 2324.44L1607.03 2336.64L1625.15 2332.18L1622.15 2319.97L1702.54 2300.16Z" fill="#AF8DEC"/>
<path d="M1627.54 2174.29C1609.83 2176.56 1595.5 2184.85 1586.09 2199.93C1578.83 2211.42 1576.45 2225.72 1580.08 2240.43C1587.42 2270.22 1617.4 2286.05 1645.4 2279.15C1672.85 2272.39 1692.08 2244.61 1684.61 2214.29C1682.09 2204.06 1676.83 2195.07 1669.05 2188.24C1661.45 2181.35 1651.47 2176.39 1639.38 2174.42L1645.35 2198.65C1654.53 2201.14 1661.64 2207.58 1664.47 2219.06C1667.96 2232.47 1662.62 2248.64 1647.09 2253.61L1627.54 2174.29ZM1629.06 2257.67C1619.15 2259.16 1604.24 2252.75 1599.95 2235.34C1595.53 2218.16 1606.19 2205.06 1615.3 2201.86L1629.06 2257.67Z" fill="#AF8DEC"/>
<path d="M1482.6 2799.59V2776.85L1414.04 2757.45L1482.6 2737.49V2714.75L1381.14 2682.23V2707.36L1451.74 2727.14L1384.46 2746.91V2767.43L1451.74 2786.83L1381.14 2806.98V2832.11L1482.6 2799.59Z" fill="#AF8DEC"/>
<path d="M1381.14 2578.21V2602.43H1395.92C1387.79 2606.86 1378 2618.13 1378 2636.62C1378 2665.08 1399.8 2688.18 1431.78 2688.18C1460.43 2688.18 1485.75 2669.14 1485.75 2636.62C1485.75 2622.39 1479.83 2608.89 1468 2602.43H1482.6V2578.21H1381.14ZM1432.15 2663.97C1416.44 2663.97 1400.54 2652.88 1400.54 2633.29C1400.54 2618.69 1408.86 2609.26 1418.47 2605.01C1422.91 2602.98 1427.9 2602.06 1432.7 2602.24C1437.69 2602.61 1442.5 2603.72 1446.93 2606.12C1456.17 2610.74 1463.2 2619.61 1463.2 2633.11C1463.2 2654.91 1444.9 2663.97 1432.33 2663.97H1432.15Z" fill="#AF8DEC"/>
<path d="M1445.64 2487.23C1453.96 2490.93 1463.01 2499.43 1463.01 2514.58C1463.01 2531.77 1450.08 2544.52 1431.78 2544.52C1422.91 2544.52 1414.77 2541.38 1409.23 2536.21C1403.5 2530.29 1400.36 2523.45 1400.54 2514.58C1400.54 2501.28 1408.12 2491.48 1418.84 2487.23V2462.46C1394.08 2468.38 1378 2490 1378 2515.51C1378 2545.82 1401.84 2568.92 1431.78 2568.92C1460.79 2568.92 1485.75 2546.74 1485.75 2514.58C1485.75 2488.34 1468.19 2468.19 1445.64 2462.46V2487.23Z" fill="#AF8DEC"/>
<path d="M1439.91 2354.06C1422.17 2352.02 1406.27 2356.65 1393.52 2369.03C1383.73 2378.45 1378 2391.76 1378 2406.92C1378 2437.6 1403.32 2460.14 1432.15 2460.14C1460.43 2460.14 1485.75 2437.78 1485.75 2406.55C1485.75 2396.01 1482.79 2386.03 1476.87 2377.53C1471.14 2369.03 1462.64 2361.82 1451.37 2357.01V2381.97C1459.69 2386.59 1465.05 2394.53 1465.05 2406.36C1465.23 2420.22 1456.17 2434.64 1439.91 2435.75V2354.06ZM1421.43 2435.38C1411.45 2434.45 1398.51 2424.66 1398.51 2406.73C1398.33 2388.99 1411.82 2378.82 1421.43 2377.9V2435.38Z" fill="#AF8DEC"/>
<path d="M1482.6 2343.4V2319.19H1399.8V2303.11H1381.14V2319.19H1376.15C1361.92 2319.19 1361.92 2309.21 1361.92 2303.11H1343.25C1343.43 2320.48 1345.28 2343.4 1375.41 2343.4H1381.14V2355.97H1399.8V2343.4H1482.6Z" fill="#AF8DEC"/>
<path d="M1439.91 2203.24C1422.17 2201.21 1406.27 2205.83 1393.52 2218.21C1383.73 2227.64 1378 2240.95 1378 2256.1C1378 2286.78 1403.32 2309.33 1432.15 2309.33C1460.43 2309.33 1485.75 2286.97 1485.75 2255.73C1485.75 2245.2 1482.79 2235.22 1476.87 2226.71C1471.14 2218.21 1462.64 2211.01 1451.37 2206.2V2231.15C1459.69 2235.77 1465.05 2243.72 1465.05 2255.55C1465.23 2269.41 1456.17 2283.82 1439.91 2284.93V2203.24ZM1421.43 2284.56C1411.45 2283.64 1398.51 2273.84 1398.51 2255.92C1398.33 2238.17 1411.82 2228.01 1421.43 2227.08V2284.56Z" fill="#AF8DEC"/>
<path d="M1149.54 2775.68L1154.98 2753.61L1093.05 2718.36L1164.4 2715.39L1169.84 2693.31L1079.11 2637.45L1073.09 2661.85L1136.91 2697.95L1066.86 2701.05L1061.95 2720.97L1122.62 2755.91L1049.25 2758.58L1043.24 2782.98L1149.54 2775.68Z" fill="#AF8DEC"/>
<path d="M1104 2536.46L1098.2 2559.97L1112.56 2563.5C1103.6 2565.87 1091.39 2574.47 1086.97 2592.41C1080.16 2620.05 1095.81 2647.7 1126.85 2655.35C1154.66 2662.21 1183.8 2649.78 1191.59 2618.2C1195 2604.38 1192.48 2589.87 1182.54 2580.75L1196.72 2584.25L1202.52 2560.74L1104 2536.46ZM1133 2631.93C1117.75 2628.17 1104.97 2613.6 1109.66 2594.58C1113.15 2580.4 1123.49 2573.24 1133.83 2571.41C1138.63 2570.5 1143.69 2570.8 1148.31 2572.13C1153.07 2573.68 1157.47 2575.91 1161.2 2579.3C1169.07 2586 1173.77 2596.29 1170.54 2609.39C1165.32 2630.57 1145.39 2634.98 1133.18 2631.97L1133 2631.93Z" fill="#AF8DEC"/>
<path d="M1188.4 2463.55C1195.59 2469.13 1202.35 2479.56 1198.72 2494.27C1194.61 2510.96 1179 2520.25 1161.23 2515.87C1152.62 2513.74 1145.47 2508.75 1141.33 2502.4C1137.18 2495.28 1135.77 2487.89 1138.07 2479.32C1141.25 2466.4 1150.95 2458.7 1162.38 2457.14L1168.31 2433.1C1142.85 2432.91 1122.06 2450.06 1115.95 2474.82C1108.7 2504.25 1126.32 2532.39 1155.39 2539.55C1183.56 2546.5 1213.1 2530.93 1220.79 2499.71C1227.07 2474.23 1214.85 2450.47 1194.33 2439.51L1188.4 2463.55Z" fill="#AF8DEC"/>
<path d="M1214.71 2332.88C1197.97 2326.66 1181.43 2327.34 1166.08 2336.31C1154.32 2343.12 1145.57 2354.67 1141.94 2369.39C1134.6 2399.17 1153.79 2427.13 1181.78 2434.03C1209.24 2440.79 1239.17 2425.14 1246.65 2394.81C1249.17 2384.59 1248.69 2374.19 1244.98 2364.52C1241.45 2354.89 1234.92 2345.86 1225.13 2338.49L1219.15 2362.72C1226.12 2369.2 1229.43 2378.2 1226.59 2389.68C1223.46 2403.18 1211.21 2415.01 1195.16 2412.2L1214.71 2332.88ZM1177.3 2407.42C1167.83 2404.13 1157.61 2391.52 1161.91 2374.12C1165.97 2356.85 1181.5 2350.2 1191.06 2351.61L1177.3 2407.42Z" fill="#AF8DEC"/>
<path d="M1258.71 2332.75L1264.5 2309.24L1184.11 2289.43L1187.96 2273.81L1169.84 2269.35L1165.99 2284.96L1161.14 2283.77C1147.32 2280.36 1149.71 2270.67 1151.17 2264.75L1133.05 2260.28C1129.07 2277.19 1125.38 2299.89 1154.63 2307.1L1160.19 2308.47L1157.19 2320.67L1175.31 2325.14L1178.32 2312.93L1258.71 2332.75Z" fill="#AF8DEC"/>
<path d="M1250.8 2186.45C1234.06 2180.23 1217.52 2180.91 1202.18 2189.88C1190.41 2196.69 1181.66 2208.24 1178.03 2222.95C1170.69 2252.74 1189.88 2280.69 1217.87 2287.59C1245.33 2294.36 1275.27 2278.71 1282.74 2248.38C1285.26 2238.15 1284.78 2227.75 1281.07 2218.08C1277.54 2208.46 1271.01 2199.43 1261.22 2192.06L1255.25 2216.29C1262.22 2222.76 1265.52 2231.76 1262.69 2243.25C1259.55 2256.75 1247.31 2268.58 1231.25 2265.76L1250.8 2186.45ZM1213.39 2260.98C1203.92 2257.7 1193.71 2245.09 1198 2227.68C1202.06 2210.41 1217.6 2203.77 1227.15 2205.17L1213.39 2260.98Z" fill="#AF8DEC"/>
<path d="M831.869 2672.77L842.433 2652.65L790.738 2603.6L860.728 2617.79L871.292 2597.66L796.566 2521.7L784.885 2543.96L838.208 2594.28L769.45 2580.53L759.916 2598.69L810.466 2647.14L738.59 2632.17L726.909 2654.42L831.869 2672.77Z" fill="#AF8DEC"/>
<path d="M844.903 2429.61L833.651 2451.04L846.743 2457.92C837.481 2458.06 823.569 2463.49 814.98 2479.86C801.753 2505.06 810.327 2535.65 838.638 2550.51C864.004 2563.82 895.27 2558.73 910.387 2529.93C917 2517.33 918.034 2502.64 910.566 2491.41L923.494 2498.2L934.746 2476.76L844.903 2429.61ZM850.217 2529.24C836.307 2521.94 827.386 2504.74 836.491 2487.39C843.276 2474.46 855.021 2469.98 865.506 2470.68C870.378 2470.95 875.226 2472.45 879.395 2474.84C883.642 2477.49 887.381 2480.7 890.192 2484.89C896.228 2493.28 898.324 2504.4 892.054 2516.34C881.919 2535.66 861.509 2535.17 850.381 2529.33L850.217 2529.24Z" fill="#AF8DEC"/>
<path d="M944.299 2379.02C949.945 2386.16 954.013 2397.89 946.97 2411.31C938.982 2426.53 921.6 2431.81 905.399 2423.31C897.544 2419.19 891.804 2412.62 889.299 2405.47C886.974 2397.57 887.37 2390.05 891.657 2382.28C897.841 2370.5 909.102 2365.35 920.57 2366.57L932.079 2344.64C907.401 2338.36 883.115 2350.04 871.262 2372.62C857.176 2399.46 867.551 2431 894.062 2444.91C919.755 2458.39 952.154 2450.35 967.099 2421.88C979.295 2398.64 973.11 2372.64 955.808 2357.09L944.299 2379.02Z" fill="#AF8DEC"/>
<path d="M1001.11 2258.44C986.348 2248.39 970.127 2245.1 953.081 2250.14C940.027 2253.93 928.77 2263.05 921.727 2276.47C907.469 2303.63 919.411 2335.37 944.94 2348.77C969.978 2361.91 1002.79 2353.87 1017.31 2326.22C1022.2 2316.89 1024.22 2306.68 1022.94 2296.4C1021.81 2286.21 1017.64 2275.88 1009.89 2266.38L998.29 2288.47C1003.51 2296.43 1004.56 2305.96 999.063 2316.43C992.785 2328.79 978.067 2337.35 963.15 2330.77L1001.11 2258.44ZM946.957 2321.86C938.55 2316.4 931.646 2301.71 939.978 2285.84C948.059 2270.04 964.73 2267.31 973.669 2270.96L946.957 2321.86Z" fill="#AF8DEC"/>
<path d="M1043.87 2268.84L1055.12 2247.4L981.807 2208.92L989.279 2194.69L972.751 2186.01L965.278 2200.25L960.86 2197.93C948.259 2191.32 952.897 2182.48 955.731 2177.08L939.203 2168.41C931.293 2183.87 922.279 2205.03 948.954 2219.03L954.027 2221.69L948.186 2232.82L964.715 2241.49L970.555 2230.36L1043.87 2268.84Z" fill="#AF8DEC"/>
<path d="M1071.2 2124.9C1056.44 2114.85 1040.21 2111.56 1023.17 2116.6C1010.11 2120.39 998.857 2129.51 991.814 2142.93C977.556 2170.09 989.498 2201.83 1015.03 2215.23C1040.07 2228.37 1072.88 2220.33 1087.39 2192.68C1092.29 2183.35 1094.31 2173.14 1093.02 2162.86C1091.9 2152.67 1087.72 2142.34 1079.97 2132.84L1068.38 2154.93C1073.59 2162.89 1074.65 2172.42 1069.15 2182.89C1062.87 2195.25 1048.15 2203.81 1033.24 2197.23L1071.2 2124.9ZM1017.04 2188.32C1008.64 2182.86 1001.73 2168.17 1010.06 2152.3C1018.15 2136.5 1034.82 2133.77 1043.76 2137.42L1017.04 2188.32Z" fill="#AF8DEC"/>
<path d="M548.063 2496.81L563.138 2479.8L524.682 2419.8L589.242 2450.33L604.317 2433.31L549.939 2341.68L533.271 2360.5L573.003 2422.12L509.534 2392.31L495.93 2407.66L533.417 2466.8L467.213 2435.06L450.545 2453.88L548.063 2496.81Z" fill="#AF8DEC"/>
<path d="M618.912 2263.83L602.857 2281.95L613.924 2291.76C604.896 2289.68 590.088 2291.63 577.832 2305.46C558.958 2326.76 559.963 2358.52 583.895 2379.72C605.338 2398.72 636.914 2401.26 658.484 2376.91C667.921 2366.26 672.44 2352.24 667.876 2339.55L678.805 2349.23L694.86 2331.11L618.912 2263.83ZM600.227 2361.84C588.468 2351.43 583.924 2332.59 596.916 2317.92C606.598 2306.99 619.073 2305.45 629.086 2308.64C633.754 2310.06 638.102 2312.68 641.576 2316.01C645.066 2319.59 647.928 2323.61 649.654 2328.35C653.507 2337.93 652.882 2349.23 643.935 2359.33C629.473 2375.65 609.772 2370.3 600.365 2361.97L600.227 2361.84Z" fill="#AF8DEC"/>
<path d="M727.526 2238.5C731.3 2246.78 732.441 2259.15 722.391 2270.49C710.993 2283.36 692.853 2284.32 679.158 2272.19C672.518 2266.31 668.514 2258.56 667.796 2251.01C667.429 2242.79 669.612 2235.59 675.633 2229.07C684.457 2219.11 696.624 2216.8 707.467 2220.73L723.89 2202.19C701.43 2190.19 675.056 2195.72 658.143 2214.81C638.043 2237.5 640.569 2270.6 662.98 2290.45C684.699 2309.69 718.082 2309.64 739.407 2285.57C756.81 2265.92 757.027 2239.2 743.949 2219.96L727.526 2238.5Z" fill="#AF8DEC"/>
<path d="M811.547 2135.02C799.614 2121.73 784.653 2114.65 766.897 2115.46C753.314 2116.02 740.202 2122.18 730.152 2133.53C709.807 2156.49 713.808 2190.16 735.389 2209.28C756.554 2228.03 790.336 2228.08 811.048 2204.7C818.034 2196.82 822.439 2187.38 823.65 2177.1C824.999 2166.94 823.415 2155.9 818.163 2144.83L801.618 2163.51C804.779 2172.48 803.521 2181.98 795.677 2190.84C786.624 2201.33 770.286 2206.12 757.376 2196.16L811.547 2135.02ZM743.788 2183.63C736.93 2176.32 733.742 2160.41 745.63 2146.99C757.257 2133.59 774.097 2134.93 781.903 2140.61L743.788 2183.63Z" fill="#AF8DEC"/>
<path d="M850.571 2155.35L866.626 2137.23L804.65 2082.32L815.313 2070.29L801.341 2057.91L790.678 2069.94L786.943 2066.64C776.291 2057.2 782.909 2049.73 786.953 2045.16L772.981 2032.78C761.599 2045.91 747.785 2064.29 770.335 2084.27L774.623 2088.07L766.289 2097.47L780.261 2109.85L788.595 2100.44L850.571 2155.35Z" fill="#AF8DEC"/>
<path d="M911.556 2022.13C899.623 2008.84 884.662 2001.76 866.905 2002.58C853.323 2003.13 840.21 2009.3 830.161 2020.64C809.816 2043.6 813.817 2077.27 835.397 2096.39C856.563 2115.14 890.345 2115.19 911.057 2091.81C918.043 2083.93 922.448 2074.5 923.659 2064.21C925.008 2054.05 923.424 2043.02 918.172 2031.94L901.626 2050.62C904.788 2059.59 903.53 2069.1 895.686 2077.95C886.632 2088.45 870.294 2093.23 857.385 2083.28L911.556 2022.13ZM843.796 2070.74C836.939 2063.44 833.751 2047.52 845.639 2034.11C857.266 2020.7 874.105 2022.04 881.912 2027.72L843.796 2070.74Z" fill="#AF8DEC"/>
<path d="M314.609 2258.06L333.318 2245.15L310.338 2177.69L365.716 2222.78L384.425 2209.87L353.556 2107.89L332.87 2122.17L356.701 2191.5L302.21 2147.37L285.326 2159.02L307.571 2225.41L250.886 2178.75L230.2 2193.03L314.609 2258.06Z" fill="#AF8DEC"/>
<path d="M439.156 2048.8L419.231 2062.55L427.63 2074.72C419.36 2070.55 404.517 2068.89 389.307 2079.39C365.883 2095.56 359.259 2126.63 377.422 2152.95C393.696 2176.52 423.746 2186.55 450.516 2168.07C462.228 2159.98 469.971 2147.45 468.576 2134.04L476.87 2146.06L496.795 2132.31L439.156 2048.8ZM397.558 2139.5C388.634 2126.57 388.731 2107.19 404.854 2096.06C416.87 2087.76 429.351 2089.25 438.309 2094.75C442.502 2097.24 446.097 2100.83 448.675 2104.89C451.205 2109.2 453.023 2113.79 453.565 2118.8C455.012 2129.03 451.7 2139.85 440.597 2147.52C422.649 2159.91 404.802 2149.99 397.663 2139.65L397.558 2139.5Z" fill="#AF8DEC"/>
<path d="M550.676 2050.2C552.358 2059.14 550.506 2071.43 538.034 2080.04C523.888 2089.8 506.044 2086.4 495.65 2071.34C490.611 2064.04 488.577 2055.56 489.686 2048.06C491.299 2039.98 495.142 2033.51 502.548 2028.63C513.499 2021.07 525.865 2021.74 535.453 2028.15L555.834 2014.08C536.899 1997.05 509.969 1996.11 488.978 2010.59C464.034 2027.81 458.564 2060.56 475.572 2085.2C492.056 2109.08 524.482 2117.01 550.947 2098.74C572.546 2083.84 579.151 2057.94 571.058 2036.13L550.676 2050.2Z" fill="#AF8DEC"/>
<path d="M657.02 1969.83C648.614 1954.08 635.782 1943.62 618.347 1940.16C605.026 1937.45 590.819 1940.3 578.347 1948.91C553.098 1966.34 548.925 1999.98 565.303 2023.71C581.367 2046.98 614.154 2055.12 639.86 2037.37C648.53 2031.39 655.063 2023.29 658.7 2013.59C662.443 2004.04 663.545 1992.95 661.095 1980.94L640.562 1995.12C641.483 2004.59 637.988 2013.51 628.253 2020.23C616.95 2028.26 599.942 2028.99 589.79 2016.24L657.02 1969.83ZM579.596 2000.82C574.687 1992.08 575.399 1975.87 590.153 1965.69C604.65 1955.45 620.68 1960.78 626.9 1968.17L579.596 2000.82Z" fill="#AF8DEC"/>
<path d="M690.044 1998.92L709.97 1985.16L662.935 1917.02L676.168 1907.89L665.564 1892.52L652.331 1901.66L649.496 1897.55C641.412 1885.84 649.625 1880.17 654.645 1876.7L644.041 1861.34C629.848 1871.36 612.037 1885.9 629.151 1910.7L632.405 1915.41L622.062 1922.55L632.666 1937.91L643.009 1930.77L690.044 1998.92Z" fill="#AF8DEC"/>
<path d="M781.138 1884.16C772.732 1868.41 759.901 1857.95 742.465 1854.49C729.144 1851.78 714.938 1854.63 702.465 1863.23C677.216 1880.66 673.043 1914.31 689.421 1938.04C705.485 1961.31 738.273 1969.44 763.978 1951.7C772.648 1945.72 779.182 1937.61 782.819 1927.92C786.561 1918.37 787.663 1907.28 785.214 1895.27L764.68 1909.45C765.602 1918.92 762.106 1927.84 752.371 1934.56C741.069 1942.59 724.06 1943.32 713.909 1930.57L781.138 1884.16ZM703.714 1915.15C698.805 1906.41 699.517 1890.2 714.271 1880.01C728.768 1869.78 744.798 1875.11 751.018 1882.5L703.714 1915.15Z" fill="#AF8DEC"/>
<path d="M145.08 1970.38L166.335 1962.31L160.166 1891.32L203.143 1948.36L224.399 1940.29L218.833 1833.89L195.331 1842.8L201.876 1915.83L159.53 1859.94L140.348 1867.21L146.059 1936.99L102.187 1878.13L78.6852 1887.04L145.08 1970.38Z" fill="#AF8DEC"/>
<path d="M316.086 1797L293.448 1805.59L298.691 1819.41C291.66 1813.38 277.645 1808.22 260.365 1814.78C233.752 1824.87 219.884 1853.45 231.222 1883.35C241.381 1910.13 268.159 1927.06 298.573 1915.52C311.879 1910.48 322.397 1900.16 324.251 1886.81L329.428 1900.46L352.066 1891.88L316.086 1797ZM253.991 1875.11C248.421 1860.42 253.153 1841.63 271.471 1834.68C285.123 1829.5 296.885 1833.94 304.268 1841.41C307.741 1844.84 310.375 1849.18 311.906 1853.74C313.33 1858.53 313.997 1863.42 313.324 1868.42C312.28 1878.7 306.476 1888.41 293.861 1893.2C273.469 1900.93 258.514 1887.03 254.057 1875.28L253.991 1875.11Z" fill="#AF8DEC"/>
<path d="M424.031 1825.05C423.524 1834.14 418.786 1845.62 404.615 1850.99C388.544 1857.09 372.033 1849.51 365.545 1832.41C362.399 1824.11 362.453 1815.39 365.325 1808.38C368.824 1800.92 374.103 1795.56 382.464 1792.59C394.906 1787.87 406.752 1791.48 414.528 1799.99L437.684 1791.21C423.372 1770.15 397.452 1762.79 373.604 1771.83C345.263 1782.58 332.117 1813.06 342.734 1841.06C353.023 1868.19 382.608 1883.65 412.677 1872.25C437.215 1862.94 449.825 1839.38 447.187 1816.27L424.031 1825.05Z" fill="#AF8DEC"/>
<path d="M546.517 1772.47C542.126 1755.16 532.17 1741.94 516.069 1734.4C503.783 1728.59 489.309 1727.95 475.138 1733.32C446.452 1744.2 434.348 1775.87 444.572 1802.83C454.599 1829.27 484.488 1845.02 513.692 1833.94C523.543 1830.2 531.826 1823.9 537.678 1815.36C543.595 1806.98 547.32 1796.48 547.815 1784.23L524.486 1793.08C523.115 1802.5 517.585 1810.33 506.525 1814.52C493.63 1819.61 476.94 1816.25 470.135 1801.44L546.517 1772.47ZM463.927 1784.03C461.252 1774.37 465.824 1758.8 482.586 1752.44C499.11 1745.98 513.399 1754.99 517.671 1763.64L463.927 1784.03Z" fill="#AF8DEC"/>
<path d="M571.622 1808.61L594.26 1800.02L564.899 1722.61L579.934 1716.9L573.314 1699.45L558.28 1705.15L556.51 1700.49C551.464 1687.18 560.796 1683.64 566.498 1681.48L559.879 1664.02C543.701 1670.36 522.928 1680.21 533.61 1708.38L535.642 1713.74L523.891 1718.19L530.51 1735.65L542.261 1731.19L571.622 1808.61Z" fill="#AF8DEC"/>
<path d="M687.531 1718.99C683.14 1701.68 673.184 1688.46 657.084 1680.92C644.797 1675.11 630.323 1674.47 616.153 1679.84C587.467 1690.72 575.363 1722.39 585.587 1749.35C595.614 1775.79 625.502 1791.54 654.707 1780.46C664.557 1776.72 672.84 1770.42 678.692 1761.88C684.61 1753.5 688.334 1743 688.83 1730.75L665.5 1739.6C664.129 1749.02 658.599 1756.85 647.539 1761.04C634.644 1766.13 617.954 1762.77 611.15 1747.96L687.531 1718.99ZM604.942 1730.55C602.267 1720.89 606.838 1705.32 623.6 1698.96C640.124 1692.5 654.413 1701.51 658.685 1710.16L604.942 1730.55Z" fill="#AF8DEC"/>
<path d="M49.3205 1650.48L71.8875 1647.74L82.887 1577.33L110.967 1643L133.534 1640.26L153.594 1535.61L128.642 1538.64L117.521 1611.11L89.7805 1546.71L69.4152 1549.18L58.2597 1618.3L29.7514 1550.65L4.79929 1553.68L49.3205 1650.48Z" fill="#AF8DEC"/>
<path d="M256.848 1523.07L232.814 1525.99L234.596 1540.67C229.212 1533.13 216.84 1524.76 198.493 1526.99C170.238 1530.42 149.933 1554.86 153.787 1586.6C157.24 1615.04 179.19 1637.88 211.481 1633.96C225.608 1632.24 238.288 1624.74 243.284 1612.22L245.044 1626.72L269.079 1623.8L256.848 1523.07ZM177.866 1584.05C175.973 1568.45 185.065 1551.34 204.513 1548.97C219.007 1547.21 229.367 1554.33 234.745 1563.36C237.298 1567.52 238.817 1572.36 239.213 1577.16C239.447 1582.15 238.926 1587.06 237.075 1591.75C233.602 1601.48 225.642 1609.52 212.249 1611.15C190.599 1613.78 179.404 1596.71 177.889 1584.23L177.866 1584.05Z" fill="#AF8DEC"/>
<path d="M354.944 1576.14C352.277 1584.84 344.929 1594.85 329.884 1596.68C312.822 1598.75 298.603 1587.45 296.397 1569.28C295.328 1560.48 297.467 1552.02 301.936 1545.9C307.116 1539.5 313.526 1535.55 322.355 1534.67C335.565 1533.06 346.202 1539.4 351.714 1549.53L376.299 1546.55C367.443 1522.68 344.038 1509.32 318.719 1512.39C288.63 1516.05 268.57 1542.5 272.179 1572.22C275.677 1601.03 300.701 1623.12 332.625 1619.25C358.677 1616.08 376.559 1596.23 379.529 1573.15L354.944 1576.14Z" fill="#AF8DEC"/>
<path d="M486.454 1554.4C486.334 1536.54 479.831 1521.32 466.002 1510.15C455.464 1501.56 441.563 1497.48 426.519 1499.31C396.063 1503 376.731 1530.86 380.206 1559.48C383.615 1587.55 408.867 1609.99 439.873 1606.22C450.331 1604.95 459.882 1600.82 467.609 1593.92C475.358 1587.21 481.489 1577.9 484.9 1566.13L460.131 1569.14C456.547 1577.95 449.304 1584.23 437.562 1585.65C423.824 1587.51 408.421 1580.25 405.36 1564.24L486.454 1554.4ZM403.499 1545.85C403.214 1535.83 411.378 1521.81 429.175 1519.65C446.766 1517.33 458.483 1529.49 460.559 1538.92L403.499 1545.85Z" fill="#AF8DEC"/>
<path d="M502.182 1595.49L526.216 1592.58L516.236 1510.38L532.198 1508.44L529.948 1489.91L513.986 1491.85L513.385 1486.9C511.669 1472.77 521.577 1471.57 527.631 1470.83L525.381 1452.3C508.157 1454.58 485.63 1459.17 489.261 1489.08L489.951 1494.77L477.475 1496.28L479.725 1514.81L492.201 1513.3L502.182 1595.49Z" fill="#AF8DEC"/>
<path d="M636.17 1536.22C636.049 1518.36 629.547 1503.14 615.717 1491.97C605.179 1483.38 591.279 1479.3 576.234 1481.13C545.778 1484.82 526.446 1512.68 529.922 1541.3C533.33 1569.37 558.582 1591.81 589.589 1588.05C600.047 1586.78 609.598 1582.64 617.324 1575.74C625.073 1569.03 631.204 1559.72 634.615 1547.95L609.847 1550.96C606.262 1559.77 599.019 1566.05 587.277 1567.47C573.539 1569.33 558.137 1562.08 555.075 1546.06L636.17 1536.22ZM553.215 1527.67C552.929 1517.65 561.094 1503.63 578.89 1501.47C596.481 1499.15 608.198 1511.32 610.274 1520.74L553.215 1527.67Z" fill="#AF8DEC"/>
<path d="M32.9039 1316.96L55.4708 1319.7L83.0002 1253.98L94.5502 1324.45L117.117 1327.19L161.638 1230.39L136.686 1227.36L108.545 1295.06L97.0225 1225.89L76.6572 1223.42L49.2837 1287.86L37.7954 1215.35L12.8433 1212.32L32.9039 1316.96Z" fill="#AF8DEC"/>
<path d="M264.892 1242.92L240.858 1240L239.076 1254.68C235.652 1246.07 225.641 1234.99 207.294 1232.76C179.04 1229.33 153.477 1248.2 149.623 1279.94C146.17 1308.38 162.016 1335.81 194.307 1339.73C208.434 1341.44 222.54 1337.2 230.387 1326.24L228.627 1340.73L252.662 1343.65L264.892 1242.92ZM173.613 1283.22C175.507 1267.63 188.431 1253.19 207.879 1255.55C222.373 1257.31 230.728 1266.7 233.789 1276.75C235.273 1281.4 235.588 1286.47 234.826 1291.21C233.857 1296.12 232.177 1300.76 229.258 1304.87C223.557 1313.49 213.904 1319.39 200.51 1317.77C178.861 1315.14 172.076 1295.88 173.591 1283.41L173.613 1283.22Z" fill="#AF8DEC"/>
<path d="M347.438 1317.92C342.767 1325.73 333.235 1333.7 318.191 1331.87C301.128 1329.8 290.028 1315.42 292.233 1297.25C293.303 1288.45 297.402 1280.75 303.207 1275.87C309.769 1270.9 316.936 1268.6 325.72 1269.86C338.93 1271.46 347.741 1280.16 350.669 1291.32L375.254 1294.3C372.368 1269 352.84 1250.44 327.521 1247.36C297.432 1243.71 271.624 1264.59 268.015 1294.31C264.517 1323.12 283.527 1350.56 315.45 1354.44C341.503 1357.6 363.618 1342.6 372.024 1320.91L347.438 1317.92Z" fill="#AF8DEC"/>
<path d="M480.33 1328.29C484.487 1310.92 481.816 1294.58 471.06 1280.43C462.884 1269.57 450.365 1262.28 435.32 1260.45C404.864 1256.75 379.428 1279.17 375.953 1307.79C372.545 1335.86 391.693 1363.69 422.699 1367.46C433.157 1368.73 443.421 1367 452.574 1362.15C461.704 1357.49 469.884 1349.92 476.013 1339.3L451.245 1336.3C445.655 1344 437.12 1348.36 425.378 1346.93C411.595 1345.45 398.376 1334.72 399.236 1318.44L480.33 1328.29ZM401.83 1300.14C403.951 1290.34 415.234 1278.68 433.031 1280.84C450.666 1282.79 459.131 1297.41 458.89 1307.06L401.83 1300.14Z" fill="#AF8DEC"/>
<path d="M485.765 1371.95L509.8 1374.87L519.78 1292.68L535.742 1294.61L537.992 1276.08L522.03 1274.14L522.632 1269.19C524.347 1255.06 534.254 1256.27 540.309 1257L542.559 1238.47C525.29 1236.56 502.317 1235.63 498.686 1265.54L497.995 1271.23L485.519 1269.71L483.269 1288.24L495.745 1289.76L485.765 1371.95Z" fill="#AF8DEC"/>
<path d="M630.045 1346.46C634.202 1329.1 631.531 1312.76 620.776 1298.61C612.599 1287.75 600.08 1280.46 585.035 1278.63C554.579 1274.93 529.144 1297.35 525.668 1325.97C522.26 1354.04 541.408 1381.87 572.415 1385.64C582.873 1386.91 593.136 1385.18 602.289 1380.33C611.419 1375.67 619.599 1368.1 625.729 1357.48L600.96 1354.48C595.371 1362.17 586.835 1366.54 575.093 1365.11C561.311 1363.62 548.091 1352.9 548.951 1336.62L630.045 1346.46ZM551.546 1318.31C553.666 1308.52 564.949 1296.86 582.746 1299.02C600.382 1300.97 608.846 1315.59 608.605 1325.24L551.546 1318.31Z" fill="#AF8DEC"/>
<path d="M96.7763 989.208L118.032 997.269L160.491 940.039L154.84 1011.23L176.095 1019.29L242.49 935.953L218.988 927.04L175.462 986.04L180.827 916.125L161.645 908.85L119.645 964.871L125.844 891.715L102.342 882.802L96.7763 989.208Z" fill="#AF8DEC"/>
<path d="M339.743 972.836L317.105 964.251L311.862 978.075C310.598 968.899 303.531 955.742 286.25 949.188C259.637 939.096 230.303 951.295 218.965 981.191C208.806 1007.98 217.627 1038.4 248.041 1049.94C261.348 1054.98 276.06 1054.24 286.303 1045.47L281.125 1059.12L303.763 1067.71L339.743 972.836ZM241.472 990.122C247.042 975.433 263.047 964.504 281.365 971.451C295.017 976.628 300.881 987.747 301.447 998.24C301.775 1003.11 300.87 1008.1 298.993 1012.53C296.878 1017.06 294.137 1021.16 290.318 1024.46C282.721 1031.46 271.935 1034.88 259.32 1030.1C238.929 1022.36 236.95 1002.05 241.406 990.295L241.472 990.122Z" fill="#AF8DEC"/>
<path d="M401.942 1065.41C395.537 1071.88 384.376 1077.33 370.206 1071.95C354.135 1065.86 346.799 1049.24 353.287 1032.13C356.433 1023.84 362.254 1017.35 369.059 1014C376.62 1010.74 384.128 1010.23 392.358 1013.54C404.8 1018.26 411.272 1028.82 411.445 1040.35L434.601 1049.13C437.854 1023.88 423.337 1001.18 399.489 992.134C371.149 981.386 341.093 995.486 330.476 1023.48C320.187 1050.61 332.076 1081.81 362.145 1093.21C386.684 1102.52 411.746 1093.24 425.099 1074.19L401.942 1065.41Z" fill="#AF8DEC"/>
<path d="M528.492 1107.28C536.684 1091.41 538 1074.91 530.944 1058.59C525.605 1046.09 515.194 1036.02 501.024 1030.64C472.337 1019.76 442.276 1035.44 432.052 1062.4C422.025 1088.84 433.956 1120.44 463.161 1131.52C473.011 1135.26 483.391 1136.03 493.438 1133.51C503.418 1131.17 513.173 1125.78 521.664 1116.94L498.334 1108.09C491.065 1114.23 481.734 1116.43 470.674 1112.23C457.648 1107.49 447.38 1093.91 452.11 1078.31L528.492 1107.28ZM459.01 1061.16C463.413 1052.15 477.159 1043.53 493.922 1049.89C510.577 1056.01 515.297 1072.23 512.753 1081.54L459.01 1061.16Z" fill="#AF8DEC"/>
<path d="M523.319 1150.97L545.957 1159.56L575.318 1082.14L590.352 1087.84L596.971 1070.39L581.937 1064.69L583.706 1060.02C588.753 1046.72 598.084 1050.25 603.787 1052.42L610.406 1034.96C594.097 1028.98 572.013 1022.58 561.331 1050.75L559.299 1056.1L547.548 1051.65L540.929 1069.1L552.68 1073.56L523.319 1150.97Z" fill="#AF8DEC"/>
<path d="M669.506 1160.76C677.699 1144.89 679.015 1128.39 671.959 1112.07C666.619 1099.57 656.208 1089.5 642.038 1084.12C613.352 1073.24 583.291 1088.92 573.067 1115.88C563.039 1142.32 574.971 1173.92 604.175 1185C614.025 1188.74 624.406 1189.51 634.452 1186.99C644.433 1184.65 654.187 1179.26 662.678 1170.42L639.349 1161.57C632.079 1167.71 622.748 1169.9 611.688 1165.71C598.662 1160.97 588.394 1147.39 593.125 1131.79L669.506 1160.76ZM600.024 1114.64C604.427 1105.63 618.174 1097.01 634.936 1103.37C651.591 1109.49 656.312 1125.71 653.768 1135.02L600.024 1114.64Z" fill="#AF8DEC"/>
<path d="M237.231 686.26L255.94 699.174L310.862 653.768L288.338 721.537L307.047 734.45L391.456 669.424L370.77 655.145L314.389 702.015L336.33 635.416L319.446 623.762L265.26 668.103L288.786 598.556L268.1 584.278L237.231 686.26Z" fill="#AF8DEC"/>
<path d="M477.056 728.51L457.131 714.756L448.732 726.924C449.701 717.712 445.987 703.246 430.777 692.747C407.353 676.579 375.951 681.404 357.788 707.717C341.515 731.293 342.798 762.945 369.568 781.423C381.28 789.507 395.743 792.304 407.786 786.244L399.492 798.26L419.417 812.014L477.056 728.51ZM377.504 721.775C386.428 708.846 404.583 702.065 420.706 713.194C432.722 721.488 435.755 733.687 433.794 744.011C432.947 748.816 430.873 753.448 427.991 757.298C424.852 761.194 421.21 764.519 416.713 766.805C407.661 771.785 396.37 772.526 385.267 764.862C367.318 752.473 370.259 732.27 377.399 721.927L377.504 721.775Z" fill="#AF8DEC"/>
<path d="M515.294 833.278C507.527 838.023 495.386 840.647 482.913 832.038C468.768 822.274 465.622 804.382 476.016 789.324C481.055 782.023 488.261 777.115 495.669 775.492C503.791 774.137 511.204 775.435 518.4 780.627C529.351 788.186 533.108 799.987 530.517 811.223L550.899 825.292C560.1 801.551 551.438 776.034 530.448 761.545C505.503 744.327 472.947 750.825 455.938 775.466C439.455 799.346 443.534 832.478 470 850.746C491.598 865.655 518.152 862.649 535.675 847.347L515.294 833.278Z" fill="#AF8DEC"/>
<path d="M628.147 904.213C639.899 890.766 645.125 875.061 642.179 857.532C639.986 844.116 632.289 831.841 619.817 823.232C594.567 805.804 561.627 813.833 545.249 837.561C529.186 860.833 533.207 894.375 558.912 912.118C567.582 918.102 577.475 921.338 587.832 921.3C598.083 921.415 608.845 918.513 619.204 911.964L598.67 897.79C590.143 902.01 580.558 901.907 570.823 895.188C559.31 887.465 552.591 871.823 560.917 857.808L628.147 904.213ZM571.72 842.808C578.15 835.119 593.561 830.037 608.315 840.221C623.022 850.147 623.723 867.025 619.024 875.46L571.72 842.808Z" fill="#AF8DEC"/>
<path d="M612.666 945.404L632.592 959.158L679.627 891.016L692.86 900.15L703.464 884.787L690.231 875.653L693.065 871.546C701.149 859.835 709.363 865.504 714.382 868.969L724.986 853.606C710.584 843.889 690.673 832.392 673.56 857.185L670.305 861.9L659.962 854.76L649.358 870.123L659.701 877.262L612.666 945.404Z" fill="#AF8DEC"/>
<path d="M752.265 989.886C764.017 976.439 769.243 960.734 766.297 943.204C764.104 929.788 756.407 917.514 743.935 908.905C718.686 891.477 685.746 899.506 669.367 923.234C653.304 946.506 657.325 980.048 683.03 997.791C691.7 1003.78 701.594 1007.01 711.95 1006.97C722.201 1007.09 732.963 1004.19 743.322 997.637L722.788 983.463C714.261 987.683 704.676 987.579 694.941 980.86C683.429 973.138 676.709 957.496 685.035 943.481L752.265 989.886ZM695.839 928.481C702.268 920.792 717.679 915.709 732.433 925.893C747.14 935.82 747.841 952.698 743.142 961.132L695.839 928.481Z" fill="#AF8DEC"/>
<path d="M446.106 425.733L461.181 442.749L525.373 411.806L487.286 472.215L502.36 489.231L599.878 446.295L583.211 427.48L517.252 459.495L554.493 400.082L540.889 384.726L477.665 414.812L517.152 352.916L500.484 334.102L446.106 425.733Z" fill="#AF8DEC"/>
<path d="M668.851 524.149L652.796 506.027L641.729 515.831C644.875 507.119 644.731 492.184 632.475 478.35C613.601 457.046 581.958 454.216 558.025 475.418C536.582 494.415 530.253 525.454 551.824 549.801C561.26 560.454 574.634 566.63 587.777 563.629L576.848 573.311L592.903 591.433L668.851 524.149ZM573.803 493.786C585.562 483.368 604.813 481.129 617.804 495.793C627.486 506.721 627.511 519.292 623.136 528.846C621.164 533.31 618.042 537.31 614.322 540.358C610.342 543.391 606.01 545.747 601.097 546.89C591.116 549.56 579.976 547.577 571.029 537.478C556.568 521.154 564.258 502.242 573.665 493.908L573.803 493.786Z" fill="#AF8DEC"/>
<path d="M680.905 635.024C672.228 637.772 659.812 637.414 649.763 626.07C638.365 613.205 639.592 595.081 653.287 582.947C659.928 577.065 668.098 574.024 675.68 574.221C683.89 574.848 690.777 577.883 696.521 584.646C705.345 594.606 706.169 606.963 700.964 617.253L717.387 635.791C732.002 614.941 729.698 588.093 712.786 569.002C692.686 546.315 659.521 544.832 637.11 564.687C615.391 583.928 611.422 617.074 632.747 641.145C650.15 660.789 676.651 664.225 697.328 653.562L680.905 635.024Z" fill="#AF8DEC"/>
<path d="M773.503 730.905C788.131 720.662 796.965 706.663 798.299 688.938C799.38 675.387 794.844 661.628 784.795 650.284C764.45 627.32 730.546 627.233 708.965 646.352C687.799 665.103 683.676 698.632 704.388 722.012C711.374 729.897 720.206 735.406 730.27 737.848C740.196 740.412 751.34 740.17 762.965 736.291L746.42 717.615C737.13 719.672 727.849 717.277 720.005 708.423C710.675 698.171 707.894 681.375 719.332 669.76L773.503 730.905ZM733.411 657.781C741.494 651.854 757.674 650.607 769.562 664.026C781.466 677.184 778.107 693.739 771.527 700.804L733.411 657.781Z" fill="#AF8DEC"/>
<path d="M748.615 767.195L764.67 785.317L826.645 730.411L837.308 742.447L851.28 730.068L840.618 718.033L844.353 714.724C855.005 705.287 861.623 712.757 865.667 717.322L879.639 704.944C867.981 692.063 851.4 676.134 828.851 696.111L824.563 699.911L816.229 690.503L802.256 702.882L810.59 712.289L748.615 767.195Z" fill="#AF8DEC"/>
<path d="M873.511 843.792C888.14 833.548 896.973 819.55 898.307 801.825C899.389 788.274 894.853 774.514 884.804 763.17C864.459 740.206 830.555 740.119 808.974 759.238C787.808 777.99 783.685 811.519 804.397 834.898C811.383 842.783 820.214 848.293 830.279 850.735C840.205 853.299 851.348 853.056 862.974 849.177L846.428 830.501C837.139 832.558 827.857 830.164 820.014 821.31C810.683 811.057 807.903 794.261 819.341 782.646L873.511 843.792ZM833.42 770.667C841.503 764.741 857.682 763.494 869.57 776.913C881.474 790.071 878.116 806.626 871.535 813.691L833.42 770.667Z" fill="#AF8DEC"/>
<path d="M711.262 222.758L721.827 242.887L791.559 228.205L740.121 277.744L750.686 297.873L855.646 279.522L843.965 257.266L772.261 272.565L822.638 223.791L813.105 205.626L744.518 219.706L797.67 169.059L785.989 146.803L711.262 222.758Z" fill="#AF8DEC"/>
<path d="M903.983 371.62L892.731 350.182L879.639 357.053C884.778 349.347 888.212 334.812 879.623 318.447C866.396 293.245 836.35 282.924 808.038 297.783C782.673 311.096 769.1 339.719 784.216 368.521C790.83 381.122 802.336 390.32 815.816 390.55L802.888 397.336L814.139 418.774L903.983 371.62ZM818.963 319.393C832.873 312.092 852.1 314.525 861.204 331.871C867.99 344.8 865.006 357.011 858.471 365.241C855.489 369.102 851.5 372.24 847.159 374.309C842.569 376.301 837.798 377.552 832.754 377.486C822.425 377.689 812.083 373.098 805.813 361.152C795.678 341.841 807.671 325.319 818.799 319.479L818.963 319.393Z" fill="#AF8DEC"/>
<path d="M889.152 482.158C880.07 482.75 868.1 479.431 861.057 466.012C853.069 450.792 858.598 433.488 874.799 424.985C882.655 420.863 891.315 419.866 898.63 421.871C906.451 424.445 912.411 429.04 916.37 436.981C922.554 448.764 920.397 460.959 912.881 469.704L924.39 491.633C943.57 474.887 947.759 448.268 935.906 425.684C921.82 398.846 889.973 389.47 863.462 403.384C837.769 416.868 825.983 448.101 840.928 476.576C853.124 499.814 878.033 509.493 900.661 504.087L889.152 482.158Z" fill="#AF8DEC"/>
<path d="M956.113 597.414C972.768 590.968 984.694 579.491 990.232 562.6C994.525 549.701 993.414 535.256 986.371 521.837C972.113 494.671 939.215 486.473 913.685 499.872C888.647 513.013 876.62 544.581 891.135 572.238C896.031 581.566 903.287 589.029 912.475 593.808C921.499 598.673 932.377 601.105 944.592 600.12L932.997 578.028C923.486 577.802 915.047 573.255 909.55 562.782C902.944 550.594 904.264 533.621 918.15 525.081L956.113 597.414ZM934.686 516.819C943.953 512.999 959.96 515.66 968.292 531.534C976.701 547.159 969.478 562.429 961.398 567.714L934.686 516.819Z" fill="#AF8DEC"/>
<path d="M923.263 626.692L934.515 648.13L1007.83 609.651L1015.3 623.889L1031.83 615.214L1024.36 600.977L1028.78 598.658C1041.38 592.044 1046.02 600.881 1048.85 606.281L1065.38 597.607C1057.14 582.31 1044.85 562.876 1018.18 576.876L1013.11 579.539L1007.27 568.41L990.737 577.085L996.578 588.213L923.263 626.692Z" fill="#AF8DEC"/>
<path d="M1026.2 730.953C1042.85 724.508 1054.78 713.031 1060.32 696.14C1064.61 683.241 1063.5 668.796 1056.46 655.377C1042.2 628.211 1009.3 620.013 983.773 633.412C958.734 646.553 946.707 678.121 961.222 705.778C966.118 715.106 973.375 722.569 982.562 727.348C991.586 732.213 1002.46 734.645 1014.68 733.66L1003.08 711.568C993.573 711.341 985.134 706.795 979.637 696.322C973.032 684.134 974.351 667.161 988.237 658.621L1026.2 730.953ZM1004.77 650.359C1014.04 646.539 1030.05 649.2 1038.38 665.074C1046.79 680.699 1039.57 695.969 1031.49 701.254L1004.77 650.359Z" fill="#AF8DEC"/>
<path d="M1017.28 89.1437L1022.72 111.216L1093.94 113.649L1032.14 149.438L1037.58 171.51L1143.89 178.811L1137.87 154.406L1064.59 152.101L1125.18 116.8L1120.27 96.8816L1050.3 94.1392L1114.03 57.6835L1108.02 33.2786L1017.28 89.1437Z" fill="#AF8DEC"/>
<path d="M1168.78 279.801L1162.98 256.293L1148.63 259.832C1155.46 253.579 1162.28 240.288 1157.85 222.344C1151.04 194.709 1124.34 177.497 1093.29 185.148C1065.48 192.004 1045.45 216.547 1053.23 248.13C1056.64 261.947 1065.61 273.632 1078.64 277.081L1064.47 280.576L1070.26 304.083L1168.78 279.801ZM1098.73 208.745C1113.98 204.985 1132.07 211.948 1136.76 230.97C1140.25 245.146 1134.43 256.288 1126.12 262.716C1122.3 265.751 1117.67 267.842 1112.96 268.813C1108.03 269.648 1103.1 269.722 1098.22 268.45C1088.14 266.176 1079.2 259.243 1075.97 246.143C1070.75 224.968 1086.35 211.796 1098.55 208.789L1098.73 208.745Z" fill="#AF8DEC"/>
<path d="M1127.92 383.578C1118.96 381.979 1108.14 375.892 1104.51 361.177C1100.4 344.488 1109.91 329.01 1127.67 324.632C1136.29 322.508 1144.93 323.613 1151.56 327.311C1158.53 331.682 1163.22 337.569 1165.16 346.227C1168.35 359.148 1163.34 370.472 1153.94 377.164L1159.87 401.21C1182.5 389.541 1192.94 364.698 1186.84 339.934C1179.58 310.504 1150.9 293.779 1121.83 300.944C1093.66 307.888 1074.74 335.393 1082.44 366.617C1088.72 392.099 1110.59 407.457 1133.85 407.624L1127.92 383.578Z" fill="#AF8DEC"/>
<path d="M1165.36 511.509C1183.07 509.237 1197.4 500.947 1206.82 485.872C1214.07 474.376 1216.45 460.084 1212.82 445.37C1205.48 415.581 1175.5 399.748 1147.51 406.648C1120.05 413.415 1100.82 441.188 1108.29 471.515C1110.81 481.743 1116.07 490.726 1123.85 497.565C1131.45 504.448 1141.43 509.412 1153.52 511.38L1147.55 487.154C1138.37 484.659 1131.27 478.225 1128.44 466.74C1124.94 453.326 1130.28 437.162 1145.81 432.193L1165.36 511.509ZM1163.84 428.129C1173.75 426.637 1188.66 433.052 1192.95 450.459C1197.37 467.641 1186.71 480.74 1177.6 483.937L1163.84 428.129Z" fill="#AF8DEC"/>
<path d="M1126.46 532.075L1132.25 555.583L1212.64 535.768L1216.49 551.38L1234.62 546.912L1230.77 531.3L1235.61 530.106C1249.43 526.701 1251.82 536.391 1253.28 542.312L1271.4 537.845C1267.07 521.021 1259.79 499.212 1230.54 506.422L1224.97 507.793L1221.97 495.59L1203.84 500.057L1206.85 512.26L1126.46 532.075Z" fill="#AF8DEC"/>
<path d="M1201.45 657.941C1219.16 655.669 1233.49 647.379 1242.91 632.304C1250.16 620.808 1252.54 606.517 1248.92 591.802C1241.57 562.014 1211.59 546.18 1183.6 553.08C1156.14 559.848 1136.91 587.62 1144.39 617.947C1146.91 628.176 1152.17 637.158 1159.94 643.997C1167.54 650.881 1177.52 655.845 1189.62 657.812L1183.65 633.587C1174.46 631.091 1167.36 624.657 1164.53 613.173C1161.03 599.758 1166.37 583.594 1181.9 578.625L1201.45 657.941ZM1199.93 574.561C1209.85 573.07 1224.75 579.485 1229.04 596.891C1233.47 614.074 1222.8 627.172 1213.69 630.369L1199.93 574.561Z" fill="#AF8DEC"/>
</svg>
